<?xml version="1.0" encoding="UTF-8" standalone="no"?>
<!DOCTYPE svg PUBLIC "-//W3C//DTD SVG 1.1//EN"
 "http://www.w3.org/Graphics/SVG/1.1/DTD/svg11.dtd">
<!-- Generated by graphviz version 2.38.0 (20140413.2041)
 -->
<!-- Title: controllers_diagram Pages: 1 -->
<svg width="601pt" height="556pt"
 viewBox="0.00 0.00 600.53 556.00" xmlns="http://www.w3.org/2000/svg" xmlns:xlink="http://www.w3.org/1999/xlink">
<g id="graph0" class="graph" transform="scale(1 1) rotate(0) translate(237.714 318.5)">
<title>controllers_diagram</title>
<polygon fill="none" stroke="none" points="-237.714,237.5 -237.714,-318.5 362.821,-318.5 362.821,237.5 -237.714,237.5"/>
<!-- _diagram_info -->
<g id="node1" class="node"><title>_diagram_info</title>
<text text-anchor="start" x="-108.688" y="-20.1" font-family="Times,serif" font-size="13.00">Controllers diagram</text>
<text text-anchor="start" x="-108.688" y="-7.1" font-family="Times,serif" font-size="13.00">Date: Oct 17 2015 &#45; 08:16</text>
<text text-anchor="start" x="-108.688" y="5.9" font-family="Times,serif" font-size="13.00">Migration version: 20151017151520</text>
<text text-anchor="start" x="-108.688" y="18.9" font-family="Times,serif" font-size="13.00">Generated by RailRoady 1.3.1</text>
<text text-anchor="start" x="-108.688" y="31.9" font-family="Times,serif" font-size="13.00">http://railroady.prestonlee.com</text>
</g>
<!-- ApplicationController -->
<g id="node2" class="node"><title>ApplicationController</title>
<path fill="none" stroke="black" d="M-143.821,155C-143.821,155 -28.1792,155 -28.1792,155 -22.1792,155 -16.1792,149 -16.1792,143 -16.1792,143 -16.1792,75 -16.1792,75 -16.1792,69 -22.1792,63 -28.1792,63 -28.1792,63 -143.821,63 -143.821,63 -149.821,63 -155.821,69 -155.821,75 -155.821,75 -155.821,143 -155.821,143 -155.821,149 -149.821,155 -143.821,155"/>
<text text-anchor="middle" x="-86" y="78.2" font-family="Times,serif" font-size="14.00">ApplicationController</text>
<polyline fill="none" stroke="black" points="-155.821,85 -16.1792,85 "/>
<polyline fill="none" stroke="black" points="-155.821,109 -16.1792,109 "/>
<polyline fill="none" stroke="black" points="-155.821,133 -16.1792,133 "/>
<text text-anchor="start" x="-147.821" y="148.2" font-family="Times,serif" font-size="14.00">_layout</text>
</g>
<!-- OrdersController -->
<g id="node3" class="node"><title>OrdersController</title>
<path fill="none" stroke="black" d="M259.179,-1C259.179,-1 346.821,-1 346.821,-1 352.821,-1 358.821,-7 358.821,-13 358.821,-13 358.821,-81 358.821,-81 358.821,-87 352.821,-93 346.821,-93 346.821,-93 259.179,-93 259.179,-93 253.179,-93 247.179,-87 247.179,-81 247.179,-81 247.179,-13 247.179,-13 247.179,-7 253.179,-1 259.179,-1"/>
<text text-anchor="middle" x="303" y="-77.8" font-family="Times,serif" font-size="14.00">OrdersController</text>
<polyline fill="none" stroke="black" points="247.179,-71 358.821,-71 "/>
<polyline fill="none" stroke="black" points="247.179,-47 358.821,-47 "/>
<polyline fill="none" stroke="black" points="247.179,-23 358.821,-23 "/>
<text text-anchor="start" x="255.179" y="-7.8" font-family="Times,serif" font-size="14.00">_layout</text>
</g>
<!-- PagesController -->
<g id="node4" class="node"><title>PagesController</title>
<path fill="none" stroke="black" d="M24.8965,233C24.8965,233 107.104,233 107.104,233 113.104,233 119.104,227 119.104,221 119.104,221 119.104,155 119.104,155 119.104,149 113.104,143 107.104,143 107.104,143 24.8965,143 24.8965,143 18.8965,143 12.8965,149 12.8965,155 12.8965,155 12.8965,221 12.8965,221 12.8965,227 18.8965,233 24.8965,233"/>
<text text-anchor="middle" x="66" y="158.2" font-family="Times,serif" font-size="14.00">PagesController</text>
<polyline fill="none" stroke="black" points="12.8965,165 119.104,165 "/>
<text text-anchor="start" x="20.8965" y="180.2" font-family="Times,serif" font-size="14.00">root</text>
<polyline fill="none" stroke="black" points="12.8965,187 119.104,187 "/>
<polyline fill="none" stroke="black" points="12.8965,211 119.104,211 "/>
<text text-anchor="start" x="20.8965" y="226.2" font-family="Times,serif" font-size="14.00">_layout</text>
</g>
<!-- PaymentsController -->
<g id="node5" class="node"><title>PaymentsController</title>
<path fill="none" stroke="black" d="M38.0068,-222C38.0068,-222 141.993,-222 141.993,-222 147.993,-222 153.993,-228 153.993,-234 153.993,-234 153.993,-302 153.993,-302 153.993,-308 147.993,-314 141.993,-314 141.993,-314 38.0068,-314 38.0068,-314 32.0068,-314 26.0068,-308 26.0068,-302 26.0068,-302 26.0068,-234 26.0068,-234 26.0068,-228 32.0068,-222 38.0068,-222"/>
<text text-anchor="middle" x="90" y="-298.8" font-family="Times,serif" font-size="14.00">PaymentsController</text>
<polyline fill="none" stroke="black" points="26.0068,-292 153.993,-292 "/>
<polyline fill="none" stroke="black" points="26.0068,-268 153.993,-268 "/>
<polyline fill="none" stroke="black" points="26.0068,-244 153.993,-244 "/>
<text text-anchor="start" x="34.0068" y="-228.8" font-family="Times,serif" font-size="14.00">_layout</text>
</g>
<!-- ServiceTiersController -->
<g id="node6" class="node"><title>ServiceTiersController</title>
<path fill="none" stroke="black" d="M-91.9023,-105C-91.9023,-105 27.9023,-105 27.9023,-105 33.9023,-105 39.9023,-111 39.9023,-117 39.9023,-117 39.9023,-185 39.9023,-185 39.9023,-191 33.9023,-197 27.9023,-197 27.9023,-197 -91.9023,-197 -91.9023,-197 -97.9023,-197 -103.902,-191 -103.902,-185 -103.902,-185 -103.902,-117 -103.902,-117 -103.902,-111 -97.9023,-105 -91.9023,-105"/>
<text text-anchor="middle" x="-32" y="-181.8" font-family="Times,serif" font-size="14.00">ServiceTiersController</text>
<polyline fill="none" stroke="black" points="-103.902,-175 39.9023,-175 "/>
<polyline fill="none" stroke="black" points="-103.902,-151 39.9023,-151 "/>
<polyline fill="none" stroke="black" points="-103.902,-127 39.9023,-127 "/>
<text text-anchor="start" x="-95.9023" y="-111.8" font-family="Times,serif" font-size="14.00">_layout</text>
</g>
<!-- TripPoolTripsController -->
<g id="node7" class="node"><title>TripPoolTripsController</title>
<path fill="none" stroke="black" d="M77.0474,-66C77.0474,-66 204.953,-66 204.953,-66 210.953,-66 216.953,-72 216.953,-78 216.953,-78 216.953,-146 216.953,-146 216.953,-152 210.953,-158 204.953,-158 204.953,-158 77.0474,-158 77.0474,-158 71.0474,-158 65.0474,-152 65.0474,-146 65.0474,-146 65.0474,-78 65.0474,-78 65.0474,-72 71.0474,-66 77.0474,-66"/>
<text text-anchor="middle" x="141" y="-142.8" font-family="Times,serif" font-size="14.00">TripPoolTripsController</text>
<polyline fill="none" stroke="black" points="65.0474,-136 216.953,-136 "/>
<polyline fill="none" stroke="black" points="65.0474,-112 216.953,-112 "/>
<polyline fill="none" stroke="black" points="65.0474,-88 216.953,-88 "/>
<text text-anchor="start" x="73.0474" y="-72.8" font-family="Times,serif" font-size="14.00">_layout</text>
</g>
<!-- TripPoolsController -->
<g id="node8" class="node"><title>TripPoolsController</title>
<path fill="none" stroke="black" d="M193.856,-183C193.856,-183 298.144,-183 298.144,-183 304.144,-183 310.144,-189 310.144,-195 310.144,-195 310.144,-263 310.144,-263 310.144,-269 304.144,-275 298.144,-275 298.144,-275 193.856,-275 193.856,-275 187.856,-275 181.856,-269 181.856,-263 181.856,-263 181.856,-195 181.856,-195 181.856,-189 187.856,-183 193.856,-183"/>
<text text-anchor="middle" x="246" y="-259.8" font-family="Times,serif" font-size="14.00">TripPoolsController</text>
<polyline fill="none" stroke="black" points="181.856,-253 310.144,-253 "/>
<polyline fill="none" stroke="black" points="181.856,-229 310.144,-229 "/>
<polyline fill="none" stroke="black" points="181.856,-205 310.144,-205 "/>
<text text-anchor="start" x="189.856" y="-189.8" font-family="Times,serif" font-size="14.00">_layout</text>
</g>
<!-- TripsController -->
<g id="node9" class="node"><title>TripsController</title>
<path fill="none" stroke="black" d="M154.694,233C154.694,233 233.306,233 233.306,233 239.306,233 245.306,227 245.306,221 245.306,221 245.306,153 245.306,153 245.306,147 239.306,141 233.306,141 233.306,141 154.694,141 154.694,141 148.694,141 142.694,147 142.694,153 142.694,153 142.694,221 142.694,221 142.694,227 148.694,233 154.694,233"/>
<text text-anchor="middle" x="194" y="156.2" font-family="Times,serif" font-size="14.00">TripsController</text>
<polyline fill="none" stroke="black" points="142.694,163 245.306,163 "/>
<polyline fill="none" stroke="black" points="142.694,187 245.306,187 "/>
<polyline fill="none" stroke="black" points="142.694,211 245.306,211 "/>
<text text-anchor="start" x="150.694" y="226.2" font-family="Times,serif" font-size="14.00">_layout</text>
</g>
<!-- UsersController -->
<g id="node10" class="node"><title>UsersController</title>
<path fill="none" stroke="black" d="M-221.714,-105C-221.714,-105 -140.286,-105 -140.286,-105 -134.286,-105 -128.286,-111 -128.286,-117 -128.286,-117 -128.286,-185 -128.286,-185 -128.286,-191 -134.286,-197 -140.286,-197 -140.286,-197 -221.714,-197 -221.714,-197 -227.714,-197 -233.714,-191 -233.714,-185 -233.714,-185 -233.714,-117 -233.714,-117 -233.714,-111 -227.714,-105 -221.714,-105"/>
<text text-anchor="middle" x="-181" y="-181.8" font-family="Times,serif" font-size="14.00">UsersController</text>
<polyline fill="none" stroke="black" points="-233.714,-175 -128.286,-175 "/>
<polyline fill="none" stroke="black" points="-233.714,-151 -128.286,-151 "/>
<polyline fill="none" stroke="black" points="-233.714,-127 -128.286,-127 "/>
<text text-anchor="start" x="-225.714" y="-111.8" font-family="Times,serif" font-size="14.00">_layout</text>
</g>
<!-- VehicleTypesController -->
<g id="node11" class="node"><title>VehicleTypesController</title>
<path fill="none" stroke="black" d="M128.62,116C128.62,116 253.38,116 253.38,116 259.38,116 265.38,110 265.38,104 265.38,104 265.38,36 265.38,36 265.38,30 259.38,24 253.38,24 253.38,24 128.62,24 128.62,24 122.62,24 116.62,30 116.62,36 116.62,36 116.62,104 116.62,104 116.62,110 122.62,116 128.62,116"/>
<text text-anchor="middle" x="191" y="39.2" font-family="Times,serif" font-size="14.00">VehicleTypesController</text>
<polyline fill="none" stroke="black" points="116.62,46 265.38,46 "/>
<polyline fill="none" stroke="black" points="116.62,70 265.38,70 "/>
<polyline fill="none" stroke="black" points="116.62,94 265.38,94 "/>
<text text-anchor="start" x="124.62" y="109.2" font-family="Times,serif" font-size="14.00">_layout</text>
</g>
<!-- VehiclesController -->
<g id="node12" class="node"><title>VehiclesController</title>
<path fill="none" stroke="black" d="M-105.486,-222C-105.486,-222 -8.51367,-222 -8.51367,-222 -2.51367,-222 3.48633,-228 3.48633,-234 3.48633,-234 3.48633,-302 3.48633,-302 3.48633,-308 -2.51367,-314 -8.51367,-314 -8.51367,-314 -105.486,-314 -105.486,-314 -111.486,-314 -117.486,-308 -117.486,-302 -117.486,-302 -117.486,-234 -117.486,-234 -117.486,-228 -111.486,-222 -105.486,-222"/>
<text text-anchor="middle" x="-57" y="-298.8" font-family="Times,serif" font-size="14.00">VehiclesController</text>
<polyline fill="none" stroke="black" points="-117.486,-292 3.48633,-292 "/>
<polyline fill="none" stroke="black" points="-117.486,-268 3.48633,-268 "/>
<polyline fill="none" stroke="black" points="-117.486,-244 3.48633,-244 "/>
<text text-anchor="start" x="-109.486" y="-228.8" font-family="Times,serif" font-size="14.00">_layout</text>
</g>
</g>
</svg>
