<?xml version="1.0" encoding="UTF-8" standalone="no"?>
<!DOCTYPE svg PUBLIC "-//W3C//DTD SVG 1.1//EN"
 "http://www.w3.org/Graphics/SVG/1.1/DTD/svg11.dtd">
<!-- Generated by graphviz version 2.38.0 (20140413.2041)
 -->
<!-- Title: controllers_diagram Pages: 1 -->
<svg width="551pt" height="543pt"
 viewBox="0.00 0.00 551.13 543.00" xmlns="http://www.w3.org/2000/svg" xmlns:xlink="http://www.w3.org/1999/xlink">
<g id="graph0" class="graph" transform="scale(1 1) rotate(0) translate(225.306 305.5)">
<title>controllers_diagram</title>
<polygon fill="none" stroke="none" points="-225.306,237.5 -225.306,-305.5 325.821,-305.5 325.821,237.5 -225.306,237.5"/>
<!-- _diagram_info -->
<g id="node1" class="node"><title>_diagram_info</title>
<text text-anchor="start" x="-108.688" y="-20.1" font-family="Times,serif" font-size="13.00">Controllers diagram</text>
<text text-anchor="start" x="-108.688" y="-7.1" font-family="Times,serif" font-size="13.00">Date: Oct 15 2015 &#45; 16:55</text>
<text text-anchor="start" x="-108.688" y="5.9" font-family="Times,serif" font-size="13.00">Migration version: 20151015054409</text>
<text text-anchor="start" x="-108.688" y="18.9" font-family="Times,serif" font-size="13.00">Generated by RailRoady 1.3.1</text>
<text text-anchor="start" x="-108.688" y="31.9" font-family="Times,serif" font-size="13.00">http://railroady.prestonlee.com</text>
</g>
<!-- ApplicationController -->
<g id="node2" class="node"><title>ApplicationController</title>
<path fill="none" stroke="black" d="M194.179,-183C194.179,-183 309.821,-183 309.821,-183 315.821,-183 321.821,-189 321.821,-195 321.821,-195 321.821,-263 321.821,-263 321.821,-269 315.821,-275 309.821,-275 309.821,-275 194.179,-275 194.179,-275 188.179,-275 182.179,-269 182.179,-263 182.179,-263 182.179,-195 182.179,-195 182.179,-189 188.179,-183 194.179,-183"/>
<text text-anchor="middle" x="252" y="-259.8" font-family="Times,serif" font-size="14.00">ApplicationController</text>
<polyline fill="none" stroke="black" points="182.179,-253 321.821,-253 "/>
<polyline fill="none" stroke="black" points="182.179,-229 321.821,-229 "/>
<polyline fill="none" stroke="black" points="182.179,-205 321.821,-205 "/>
<text text-anchor="start" x="190.179" y="-189.8" font-family="Times,serif" font-size="14.00">_layout</text>
</g>
<!-- OrdersController -->
<g id="node3" class="node"><title>OrdersController</title>
<path fill="none" stroke="black" d="M-91.8208,-209C-91.8208,-209 -4.1792,-209 -4.1792,-209 1.8208,-209 7.8208,-215 7.8208,-221 7.8208,-221 7.8208,-289 7.8208,-289 7.8208,-295 1.8208,-301 -4.1792,-301 -4.1792,-301 -91.8208,-301 -91.8208,-301 -97.8208,-301 -103.821,-295 -103.821,-289 -103.821,-289 -103.821,-221 -103.821,-221 -103.821,-215 -97.8208,-209 -91.8208,-209"/>
<text text-anchor="middle" x="-48" y="-285.8" font-family="Times,serif" font-size="14.00">OrdersController</text>
<polyline fill="none" stroke="black" points="-103.821,-279 7.8208,-279 "/>
<polyline fill="none" stroke="black" points="-103.821,-255 7.8208,-255 "/>
<polyline fill="none" stroke="black" points="-103.821,-231 7.8208,-231 "/>
<text text-anchor="start" x="-95.8208" y="-215.8" font-family="Times,serif" font-size="14.00">_layout</text>
</g>
<!-- PagesController -->
<g id="node4" class="node"><title>PagesController</title>
<path fill="none" stroke="black" d="M141.896,233C141.896,233 224.104,233 224.104,233 230.104,233 236.104,227 236.104,221 236.104,221 236.104,155 236.104,155 236.104,149 230.104,143 224.104,143 224.104,143 141.896,143 141.896,143 135.896,143 129.896,149 129.896,155 129.896,155 129.896,221 129.896,221 129.896,227 135.896,233 141.896,233"/>
<text text-anchor="middle" x="183" y="158.2" font-family="Times,serif" font-size="14.00">PagesController</text>
<polyline fill="none" stroke="black" points="129.896,165 236.104,165 "/>
<text text-anchor="start" x="137.896" y="180.2" font-family="Times,serif" font-size="14.00">root</text>
<polyline fill="none" stroke="black" points="129.896,187 236.104,187 "/>
<polyline fill="none" stroke="black" points="129.896,211 236.104,211 "/>
<text text-anchor="start" x="137.896" y="226.2" font-family="Times,serif" font-size="14.00">_layout</text>
</g>
<!-- PaymentsController -->
<g id="node5" class="node"><title>PaymentsController</title>
<path fill="none" stroke="black" d="M-143.993,155C-143.993,155 -40.0068,155 -40.0068,155 -34.0068,155 -28.0068,149 -28.0068,143 -28.0068,143 -28.0068,75 -28.0068,75 -28.0068,69 -34.0068,63 -40.0068,63 -40.0068,63 -143.993,63 -143.993,63 -149.993,63 -155.993,69 -155.993,75 -155.993,75 -155.993,143 -155.993,143 -155.993,149 -149.993,155 -143.993,155"/>
<text text-anchor="middle" x="-92" y="78.2" font-family="Times,serif" font-size="14.00">PaymentsController</text>
<polyline fill="none" stroke="black" points="-155.993,85 -28.0068,85 "/>
<polyline fill="none" stroke="black" points="-155.993,109 -28.0068,109 "/>
<polyline fill="none" stroke="black" points="-155.993,133 -28.0068,133 "/>
<text text-anchor="start" x="-147.993" y="148.2" font-family="Times,serif" font-size="14.00">_layout</text>
</g>
<!-- TripPoolTripsController -->
<g id="node6" class="node"><title>TripPoolTripsController</title>
<path fill="none" stroke="black" d="M129.047,116C129.047,116 256.953,116 256.953,116 262.953,116 268.953,110 268.953,104 268.953,104 268.953,36 268.953,36 268.953,30 262.953,24 256.953,24 256.953,24 129.047,24 129.047,24 123.047,24 117.047,30 117.047,36 117.047,36 117.047,104 117.047,104 117.047,110 123.047,116 129.047,116"/>
<text text-anchor="middle" x="193" y="39.2" font-family="Times,serif" font-size="14.00">TripPoolTripsController</text>
<polyline fill="none" stroke="black" points="117.047,46 268.953,46 "/>
<polyline fill="none" stroke="black" points="117.047,70 268.953,70 "/>
<polyline fill="none" stroke="black" points="117.047,94 268.953,94 "/>
<text text-anchor="start" x="125.047" y="109.2" font-family="Times,serif" font-size="14.00">_layout</text>
</g>
<!-- TripPoolsController -->
<g id="node7" class="node"><title>TripPoolsController</title>
<path fill="none" stroke="black" d="M-79.1436,-92C-79.1436,-92 25.1436,-92 25.1436,-92 31.1436,-92 37.1436,-98 37.1436,-104 37.1436,-104 37.1436,-172 37.1436,-172 37.1436,-178 31.1436,-184 25.1436,-184 25.1436,-184 -79.1436,-184 -79.1436,-184 -85.1436,-184 -91.1436,-178 -91.1436,-172 -91.1436,-172 -91.1436,-104 -91.1436,-104 -91.1436,-98 -85.1436,-92 -79.1436,-92"/>
<text text-anchor="middle" x="-27" y="-168.8" font-family="Times,serif" font-size="14.00">TripPoolsController</text>
<polyline fill="none" stroke="black" points="-91.1436,-162 37.1436,-162 "/>
<polyline fill="none" stroke="black" points="-91.1436,-138 37.1436,-138 "/>
<polyline fill="none" stroke="black" points="-91.1436,-114 37.1436,-114 "/>
<text text-anchor="start" x="-83.1436" y="-98.8" font-family="Times,serif" font-size="14.00">_layout</text>
</g>
<!-- ServiceTiersController -->
<g id="node8" class="node"><title>ServiceTiersController</title>
<path fill="none" stroke="black" d="M77.2886,-66C77.2886,-66 220.711,-66 220.711,-66 226.711,-66 232.711,-72 232.711,-78 232.711,-78 232.711,-146 232.711,-146 232.711,-152 226.711,-158 220.711,-158 220.711,-158 77.2886,-158 77.2886,-158 71.2886,-158 65.2886,-152 65.2886,-146 65.2886,-146 65.2886,-78 65.2886,-78 65.2886,-72 71.2886,-66 77.2886,-66"/>
<text text-anchor="middle" x="149" y="-142.8" font-family="Times,serif" font-size="14.00">ServiceTiersController</text>
<polyline fill="none" stroke="black" points="65.2886,-136 232.711,-136 "/>
<polyline fill="none" stroke="black" points="65.2886,-112 232.711,-112 "/>
<polyline fill="none" stroke="black" points="65.2886,-88 232.711,-88 "/>
<text text-anchor="start" x="73.2886" y="-72.8" font-family="Times,serif" font-size="14.00">_layout</text>
</g>
<!-- TripsController -->
<g id="node9" class="node"><title>TripsController</title>
<path fill="none" stroke="black" d="M-209.306,-92C-209.306,-92 -130.694,-92 -130.694,-92 -124.694,-92 -118.694,-98 -118.694,-104 -118.694,-104 -118.694,-172 -118.694,-172 -118.694,-178 -124.694,-184 -130.694,-184 -130.694,-184 -209.306,-184 -209.306,-184 -215.306,-184 -221.306,-178 -221.306,-172 -221.306,-172 -221.306,-104 -221.306,-104 -221.306,-98 -215.306,-92 -209.306,-92"/>
<text text-anchor="middle" x="-170" y="-168.8" font-family="Times,serif" font-size="14.00">TripsController</text>
<polyline fill="none" stroke="black" points="-221.306,-162 -118.694,-162 "/>
<polyline fill="none" stroke="black" points="-221.306,-138 -118.694,-138 "/>
<polyline fill="none" stroke="black" points="-221.306,-114 -118.694,-114 "/>
<text text-anchor="start" x="-213.306" y="-98.8" font-family="Times,serif" font-size="14.00">_layout</text>
</g>
<!-- UsersController -->
<g id="node10" class="node"><title>UsersController</title>
<path fill="none" stroke="black" d="M12.2861,233C12.2861,233 93.7139,233 93.7139,233 99.7139,233 105.714,227 105.714,221 105.714,221 105.714,153 105.714,153 105.714,147 99.7139,141 93.7139,141 93.7139,141 12.2861,141 12.2861,141 6.28613,141 0.286133,147 0.286133,153 0.286133,153 0.286133,221 0.286133,221 0.286133,227 6.28613,233 12.2861,233"/>
<text text-anchor="middle" x="53" y="156.2" font-family="Times,serif" font-size="14.00">UsersController</text>
<polyline fill="none" stroke="black" points="0.286133,163 105.714,163 "/>
<polyline fill="none" stroke="black" points="0.286133,187 105.714,187 "/>
<polyline fill="none" stroke="black" points="0.286133,211 105.714,211 "/>
<text text-anchor="start" x="8.28613" y="226.2" font-family="Times,serif" font-size="14.00">_layout</text>
</g>
<!-- VehiclesController -->
<g id="node11" class="node"><title>VehiclesController</title>
<path fill="none" stroke="black" d="M50.5137,-209C50.5137,-209 147.486,-209 147.486,-209 153.486,-209 159.486,-215 159.486,-221 159.486,-221 159.486,-289 159.486,-289 159.486,-295 153.486,-301 147.486,-301 147.486,-301 50.5137,-301 50.5137,-301 44.5137,-301 38.5137,-295 38.5137,-289 38.5137,-289 38.5137,-221 38.5137,-221 38.5137,-215 44.5137,-209 50.5137,-209"/>
<text text-anchor="middle" x="99" y="-285.8" font-family="Times,serif" font-size="14.00">VehiclesController</text>
<polyline fill="none" stroke="black" points="38.5137,-279 159.486,-279 "/>
<polyline fill="none" stroke="black" points="38.5137,-255 159.486,-255 "/>
<polyline fill="none" stroke="black" points="38.5137,-231 159.486,-231 "/>
<text text-anchor="start" x="46.5137" y="-215.8" font-family="Times,serif" font-size="14.00">_layout</text>
</g>
</g>
</svg>
