<?xml version="1.0" encoding="UTF-8" standalone="no"?>
<!DOCTYPE svg PUBLIC "-//W3C//DTD SVG 1.1//EN"
 "http://www.w3.org/Graphics/SVG/1.1/DTD/svg11.dtd">
<!-- Generated by graphviz version 2.38.0 (20140413.2041)
 -->
<!-- Title: Delorean Pages: 1 -->
<svg width="1128pt" height="393pt"
 viewBox="0.00 0.00 1127.60 393.00" xmlns="http://www.w3.org/2000/svg" xmlns:xlink="http://www.w3.org/1999/xlink">
<g id="graph0" class="graph" transform="scale(1 1) rotate(0) translate(28.8 364.204)">
<title>Delorean</title>
<polygon fill="white" stroke="none" points="-28.8,28.8 -28.8,-364.204 1098.8,-364.204 1098.8,28.8 -28.8,28.8"/>
<text text-anchor="middle" x="535" y="-321.004" font-family="Arial BoldMT" font-size="13.00">Delorean domain model</text>
<!-- m_Order -->
<g id="node1" class="node"><title>m_Order</title>
<path fill="none" stroke="black" d="M578,-205C578,-205 698,-205 698,-205 704,-205 710,-211 710,-217 710,-217 710,-229 710,-229 710,-235 704,-241 698,-241 698,-241 578,-241 578,-241 572,-241 566,-235 566,-229 566,-229 566,-217 566,-217 566,-211 572,-205 578,-205"/>
<text text-anchor="start" x="621.941" y="-219.2" font-family="Arial BoldMT" font-size="11.00">Order</text>
</g>
<!-- m_Payment -->
<g id="node2" class="node"><title>m_Payment</title>
<path fill="none" stroke="black" d="M938,-99.5C938,-99.5 1058,-99.5 1058,-99.5 1064,-99.5 1070,-105.5 1070,-111.5 1070,-111.5 1070,-142.5 1070,-142.5 1070,-148.5 1064,-154.5 1058,-154.5 1058,-154.5 938,-154.5 938,-154.5 932,-154.5 926,-148.5 926,-142.5 926,-142.5 926,-111.5 926,-111.5 926,-105.5 932,-99.5 938,-99.5"/>
<text text-anchor="start" x="974.295" y="-141.2" font-family="Arial BoldMT" font-size="11.00">Payment</text>
<polyline fill="none" stroke="black" points="926,-135.5 1070,-135.5 "/>
<text text-anchor="start" x="933" y="-122.5" font-family="ArialMT" font-size="10.00">amount </text>
<text text-anchor="start" x="969.133" y="-122.5" font-family="Arial ItalicMT" font-size="10.00" fill="#999999">integer</text>
<text text-anchor="start" x="933" y="-109.5" font-family="ArialMT" font-size="10.00">stripe_charge_id </text>
<text text-anchor="start" x="1009.71" y="-109.5" font-family="Arial ItalicMT" font-size="10.00" fill="#999999">integer</text>
</g>
<!-- m_Order&#45;&gt;m_Payment -->
<g id="edge4" class="edge"><title>m_Order&#45;&gt;m_Payment</title>
<path fill="none" stroke="black" d="M674.394,-241.002C718.016,-262.225 789.711,-293.704 817,-286"/>
<path fill="none" stroke="black" d="M819,-286C886.95,-266.818 943.303,-202.73 973.394,-162.013"/>
<polygon fill="black" stroke="black" points="975.966,-163.832 978.704,-154.698 970.867,-160.131 975.966,-163.832"/>
</g>
<!-- m_ServiceTier -->
<g id="node3" class="node"><title>m_ServiceTier</title>
<path fill="none" stroke="black" d="M192,-0.5C192,-0.5 338,-0.5 338,-0.5 344,-0.5 350,-6.5 350,-12.5 350,-12.5 350,-43.5 350,-43.5 350,-49.5 344,-55.5 338,-55.5 338,-55.5 192,-55.5 192,-55.5 186,-55.5 180,-49.5 180,-43.5 180,-43.5 180,-12.5 180,-12.5 180,-6.5 186,-0.5 192,-0.5"/>
<text text-anchor="start" x="235.39" y="-42.2" font-family="Arial BoldMT" font-size="11.00">ServiceTier</text>
<polyline fill="none" stroke="black" points="180,-36.5 350,-36.5 "/>
<text text-anchor="start" x="186.609" y="-23.5" font-family="ArialMT" font-size="10.00">is_eligible_for_trip_pooling </text>
<text text-anchor="start" x="307.8" y="-23.5" font-family="Arial ItalicMT" font-size="10.00" fill="#999999">boolean</text>
<text text-anchor="start" x="187" y="-10.5" font-family="ArialMT" font-size="10.00">rate </text>
<text text-anchor="start" x="207.01" y="-10.5" font-family="Arial ItalicMT" font-size="10.00" fill="#999999">float</text>
</g>
<!-- m_Trip -->
<g id="node4" class="node"><title>m_Trip</title>
<path fill="none" stroke="black" d="M758,-80C758,-80 878,-80 878,-80 884,-80 890,-86 890,-92 890,-92 890,-162 890,-162 890,-168 884,-174 878,-174 878,-174 758,-174 758,-174 752,-174 746,-168 746,-162 746,-162 746,-92 746,-92 746,-86 752,-80 758,-80"/>
<text text-anchor="start" x="806.729" y="-160.7" font-family="Arial BoldMT" font-size="11.00">Trip</text>
<polyline fill="none" stroke="black" points="746,-155 890,-155 "/>
<text text-anchor="start" x="753" y="-141.5" font-family="ArialMT" font-size="10.00">destination_date </text>
<text text-anchor="start" x="829.172" y="-141.5" font-family="Arial ItalicMT" font-size="10.00" fill="#999999">datetime</text>
<text text-anchor="start" x="753" y="-128.5" font-family="ArialMT" font-size="10.00">driver_id </text>
<text text-anchor="start" x="794.128" y="-128.5" font-family="Arial ItalicMT" font-size="10.00" fill="#999999">integer</text>
<text text-anchor="start" x="753" y="-115.5" font-family="ArialMT" font-size="10.00">is_in_progress </text>
<text text-anchor="start" x="820.812" y="-115.5" font-family="Arial ItalicMT" font-size="10.00" fill="#999999">boolean</text>
<text text-anchor="start" x="753" y="-102.5" font-family="ArialMT" font-size="10.00">origin_date </text>
<text text-anchor="start" x="805.261" y="-102.5" font-family="Arial ItalicMT" font-size="10.00" fill="#999999">datetime</text>
<text text-anchor="start" x="753" y="-89.5" font-family="ArialMT" font-size="10.00">passenger_id </text>
<text text-anchor="start" x="815.822" y="-89.5" font-family="Arial ItalicMT" font-size="10.00" fill="#999999">integer</text>
</g>
<!-- m_ServiceTier&#45;&gt;m_Trip -->
<g id="edge7" class="edge"><title>m_ServiceTier&#45;&gt;m_Trip</title>
<path fill="none" stroke="black" d="M350.215,-21.391C441.339,-17.0312 589.732,-18.1297 710,-58 722.822,-62.2507 735.62,-68.4042 747.675,-75.3097"/>
<polygon fill="black" stroke="black" points="746.135,-78.0586 755.482,-79.9437 749.351,-72.6411 746.135,-78.0586"/>
</g>
<!-- m_User -->
<g id="node7" class="node"><title>m_User</title>
<path fill="none" stroke="black" d="M398,-167C398,-167 518,-167 518,-167 524,-167 530,-173 530,-179 530,-179 530,-223 530,-223 530,-229 524,-235 518,-235 518,-235 398,-235 398,-235 392,-235 386,-229 386,-223 386,-223 386,-179 386,-179 386,-173 392,-167 398,-167"/>
<text text-anchor="start" x="444.388" y="-221.7" font-family="Arial BoldMT" font-size="11.00">User</text>
<polyline fill="none" stroke="black" points="386,-216 530,-216 "/>
<text text-anchor="start" x="393" y="-202.5" font-family="ArialMT" font-size="10.00">email </text>
<text text-anchor="start" x="419.675" y="-202.5" font-family="Arial ItalicMT" font-size="10.00" fill="#999999">string ∗ U</text>
<text text-anchor="start" x="393" y="-189.5" font-family="ArialMT" font-size="10.00">is_driver </text>
<text text-anchor="start" x="433.566" y="-189.5" font-family="Arial ItalicMT" font-size="10.00" fill="#999999">boolean</text>
<text text-anchor="start" x="393" y="-176.5" font-family="ArialMT" font-size="10.00">password_digest </text>
<text text-anchor="start" x="470.822" y="-176.5" font-family="Arial ItalicMT" font-size="10.00" fill="#999999">string</text>
</g>
<!-- m_ServiceTier&#45;&gt;m_User -->
<g id="edge12" class="edge"><title>m_ServiceTier&#45;&gt;m_User</title>
<path fill="none" stroke="black" d="M303.579,-62.0373C334.787,-90.3044 379.257,-130.583 412.291,-160.504"/>
<polygon fill="black" stroke="black" points="305.473,-59.5027 296.687,-55.7954 301.243,-64.172 305.473,-59.5027"/>
<polygon fill="black" stroke="black" points="410.372,-163.017 419.158,-166.724 414.602,-158.347 410.372,-163.017"/>
</g>
<!-- m_Trip&#45;&gt;m_Payment -->
<g id="edge3" class="edge"><title>m_Trip&#45;&gt;m_Payment</title>
<path fill="none" stroke="black" d="M890.118,-127C901.932,-127 914.184,-127 925.995,-127"/>
</g>
<!-- m_TripPoolTrip -->
<g id="node6" class="node"><title>m_TripPoolTrip</title>
<path fill="none" stroke="black" d="M938,-24C938,-24 1058,-24 1058,-24 1064,-24 1070,-30 1070,-36 1070,-36 1070,-48 1070,-48 1070,-54 1064,-60 1058,-60 1058,-60 938,-60 938,-60 932,-60 926,-54 926,-48 926,-48 926,-36 926,-36 926,-30 932,-24 938,-24"/>
<text text-anchor="start" x="966.451" y="-38.2" font-family="Arial BoldMT" font-size="11.00">TripPoolTrip</text>
</g>
<!-- m_Trip&#45;&gt;m_TripPoolTrip -->
<g id="edge8" class="edge"><title>m_Trip&#45;&gt;m_TripPoolTrip</title>
<path fill="none" stroke="black" d="M890.118,-93.0393C910.608,-83.2548 932.416,-72.8405 950.954,-63.9881"/>
<polygon fill="black" stroke="black" points="952.461,-66.7593 959.225,-60.0385 949.746,-61.0743 952.461,-66.7593"/>
</g>
<!-- m_TripPool -->
<g id="node5" class="node"><title>m_TripPool</title>
<path fill="none" stroke="black" d="M758,-14C758,-14 878,-14 878,-14 884,-14 890,-20 890,-26 890,-26 890,-38 890,-38 890,-44 884,-50 878,-50 878,-50 758,-50 758,-50 752,-50 746,-44 746,-38 746,-38 746,-26 746,-26 746,-20 752,-14 758,-14"/>
<text text-anchor="start" x="795.721" y="-28.2" font-family="Arial BoldMT" font-size="11.00">TripPool</text>
</g>
<!-- m_TripPool&#45;&gt;m_Trip -->
<g id="edge14" class="edge"><title>m_TripPool&#45;&gt;m_Trip</title>
<path fill="none" stroke="black" stroke-dasharray="1,5" d="M818,-50.1836C818,-56.9913 818,-63.799 818,-70.6067"/>
<polygon fill="black" stroke="black" points="814.85,-70.8899 818,-79.8899 821.15,-70.89 814.85,-70.8899"/>
</g>
<!-- m_TripPool&#45;&gt;m_TripPoolTrip -->
<g id="edge15" class="edge"><title>m_TripPool&#45;&gt;m_TripPoolTrip</title>
<path fill="none" stroke="black" d="M890.118,-35.9954C898.886,-36.488 907.896,-36.9941 916.787,-37.4937"/>
<polygon fill="black" stroke="black" points="916.833,-40.6511 925.995,-38.011 917.186,-34.361 916.833,-40.6511"/>
</g>
<!-- m_User&#45;&gt;m_Order -->
<g id="edge1" class="edge"><title>m_User&#45;&gt;m_Order</title>
<path fill="none" stroke="black" d="M530.118,-209.79C538.886,-210.874 547.896,-211.987 556.787,-213.086"/>
<polygon fill="black" stroke="black" points="556.677,-216.246 565.995,-214.224 557.45,-209.994 556.677,-216.246"/>
</g>
<!-- m_User&#45;&gt;m_Payment -->
<g id="edge2" class="edge"><title>m_User&#45;&gt;m_Payment</title>
<path fill="none" stroke="black" d="M515.999,-235.027C531.729,-243.09 549.123,-250.837 566,-256 673.435,-288.866 708.876,-316.524 817,-286"/>
</g>
<!-- m_User&#45;&gt;m_Trip -->
<g id="edge9" class="edge"><title>m_User&#45;&gt;m_Trip</title>
<path fill="none" stroke="black" d="M530.157,-186.292C589.824,-173.958 674.979,-156.356 737,-143.536"/>
<polygon fill="black" stroke="black" points="737.801,-146.587 745.977,-141.681 736.526,-140.418 737.801,-146.587"/>
</g>
<!-- m_Vehicle -->
<g id="node8" class="node"><title>m_Vehicle</title>
<path fill="none" stroke="black" d="M578,-73C578,-73 698,-73 698,-73 704,-73 710,-79 710,-85 710,-85 710,-103 710,-103 710,-109 704,-115 698,-115 698,-115 578,-115 578,-115 572,-115 566,-109 566,-103 566,-103 566,-85 566,-85 566,-79 572,-73 578,-73"/>
<text text-anchor="start" x="618.262" y="-101.7" font-family="Arial BoldMT" font-size="11.00">Vehicle</text>
<polyline fill="none" stroke="black" points="566,-96 710,-96 "/>
<text text-anchor="start" x="573" y="-82.5" font-family="ArialMT" font-size="10.00">gigawatt_output_rating </text>
<text text-anchor="start" x="676.965" y="-82.5" font-family="Arial ItalicMT" font-size="10.00" fill="#999999">float</text>
</g>
<!-- m_User&#45;&gt;m_Vehicle -->
<g id="edge13" class="edge"><title>m_User&#45;&gt;m_Vehicle</title>
<path fill="none" stroke="black" d="M515.81,-166.85C544.095,-149.848 577.393,-129.831 601.921,-115.087"/>
</g>
<!-- m_Vehicle&#45;&gt;m_Trip -->
<g id="edge11" class="edge"><title>m_Vehicle&#45;&gt;m_Trip</title>
<path fill="none" stroke="black" d="M710.118,-107.185C718.978,-108.827 728.085,-110.516 737.068,-112.181"/>
<polygon fill="black" stroke="black" points="736.572,-115.293 745.995,-113.836 737.72,-109.098 736.572,-115.293"/>
</g>
<!-- m_VehicleType -->
<g id="node9" class="node"><title>m_VehicleType</title>
<path fill="none" stroke="black" d="M12,-43C12,-43 132,-43 132,-43 138,-43 144,-49 144,-55 144,-55 144,-73 144,-73 144,-79 138,-85 132,-85 132,-85 12,-85 12,-85 6,-85 0,-79 0,-73 0,-73 0,-55 0,-55 0,-49 6,-43 12,-43"/>
<text text-anchor="start" x="40.3354" y="-71.7" font-family="Arial BoldMT" font-size="11.00">VehicleType</text>
<polyline fill="none" stroke="black" points="0,-66 144,-66 "/>
<text text-anchor="start" x="7" y="-52.5" font-family="ArialMT" font-size="10.00">name </text>
<text text-anchor="start" x="34.793" y="-52.5" font-family="Arial ItalicMT" font-size="10.00" fill="#999999">string</text>
</g>
<!-- m_VehicleType&#45;&gt;m_ServiceTier -->
<g id="edge5" class="edge"><title>m_VehicleType&#45;&gt;m_ServiceTier</title>
<path fill="none" stroke="black" d="M144.121,-50.5949C152.872,-48.9457 161.914,-47.2413 170.928,-45.5423"/>
<polygon fill="black" stroke="black" points="171.66,-48.61 179.921,-43.8474 170.493,-42.419 171.66,-48.61"/>
</g>
<!-- m_VehicleType&#45;&gt;m_Vehicle -->
<g id="edge16" class="edge"><title>m_VehicleType&#45;&gt;m_Vehicle</title>
<path fill="none" stroke="black" d="M144.079,-68.0212C156.069,-68.6893 168.389,-69.3696 180,-70 311.922,-77.1627 465.285,-85.1466 556.571,-89.8626"/>
<polygon fill="black" stroke="black" points="556.603,-93.0184 565.753,-90.3368 556.928,-86.7268 556.603,-93.0184"/>
</g>
</g>
</svg>
