<?xml version="1.0" encoding="UTF-8" standalone="no"?>
<!DOCTYPE svg PUBLIC "-//W3C//DTD SVG 1.1//EN"
 "http://www.w3.org/Graphics/SVG/1.1/DTD/svg11.dtd">
<!-- Generated by graphviz version 2.38.0 (20140413.2041)
 -->
<!-- Title: Delorean Pages: 1 -->
<svg width="1308pt" height="464pt"
 viewBox="0.00 0.00 1307.60 463.60" xmlns="http://www.w3.org/2000/svg" xmlns:xlink="http://www.w3.org/1999/xlink">
<g id="graph0" class="graph" transform="scale(1 1) rotate(0) translate(28.8 434.8)">
<title>Delorean</title>
<polygon fill="white" stroke="none" points="-28.8,28.8 -28.8,-434.8 1278.8,-434.8 1278.8,28.8 -28.8,28.8"/>
<text text-anchor="middle" x="625" y="-391.6" font-family="Arial BoldMT" font-size="13.00">Delorean domain model</text>
<!-- m_InflationAdjustment -->
<g id="node1" class="node"><title>m_InflationAdjustment</title>
<path fill="none" stroke="black" d="M12,-206C12,-206 132,-206 132,-206 138,-206 144,-212 144,-218 144,-218 144,-249 144,-249 144,-255 138,-261 132,-261 132,-261 12,-261 12,-261 6,-261 0,-255 0,-249 0,-249 0,-218 0,-218 0,-212 6,-206 12,-206"/>
<text text-anchor="start" x="23.2231" y="-247.7" font-family="Arial BoldMT" font-size="11.00">InflationAdjustment</text>
<polyline fill="none" stroke="black" points="0,-242 144,-242 "/>
<text text-anchor="start" x="7" y="-229" font-family="ArialMT" font-size="10.00">date </text>
<text text-anchor="start" x="29.2412" y="-229" font-family="Arial ItalicMT" font-size="10.00" fill="#999999">datetime</text>
<text text-anchor="start" x="7" y="-216" font-family="ArialMT" font-size="10.00">percent_change </text>
<text text-anchor="start" x="81.502" y="-216" font-family="Arial ItalicMT" font-size="10.00" fill="#999999">float</text>
</g>
<!-- m_Invoice -->
<g id="node2" class="node"><title>m_Invoice</title>
<path fill="none" stroke="black" d="M938,-215.5C938,-215.5 1058,-215.5 1058,-215.5 1064,-215.5 1070,-221.5 1070,-227.5 1070,-227.5 1070,-245.5 1070,-245.5 1070,-251.5 1064,-257.5 1058,-257.5 1058,-257.5 938,-257.5 938,-257.5 932,-257.5 926,-251.5 926,-245.5 926,-245.5 926,-227.5 926,-227.5 926,-221.5 932,-215.5 938,-215.5"/>
<text text-anchor="start" x="978.573" y="-244.2" font-family="Arial BoldMT" font-size="11.00">Invoice</text>
<polyline fill="none" stroke="black" points="926,-238.5 1070,-238.5 "/>
<text text-anchor="start" x="933" y="-225" font-family="ArialMT" font-size="10.00">amount </text>
<text text-anchor="start" x="969.133" y="-225" font-family="Arial ItalicMT" font-size="10.00" fill="#999999">integer</text>
</g>
<!-- m_Payment -->
<g id="node7" class="node"><title>m_Payment</title>
<path fill="none" stroke="black" d="M1118,-209C1118,-209 1238,-209 1238,-209 1244,-209 1250,-215 1250,-221 1250,-221 1250,-252 1250,-252 1250,-258 1244,-264 1238,-264 1238,-264 1118,-264 1118,-264 1112,-264 1106,-258 1106,-252 1106,-252 1106,-221 1106,-221 1106,-215 1112,-209 1118,-209"/>
<text text-anchor="start" x="1154.3" y="-250.7" font-family="Arial BoldMT" font-size="11.00">Payment</text>
<polyline fill="none" stroke="black" points="1106,-245 1250,-245 "/>
<text text-anchor="start" x="1113" y="-232" font-family="ArialMT" font-size="10.00">amount </text>
<text text-anchor="start" x="1149.13" y="-232" font-family="Arial ItalicMT" font-size="10.00" fill="#999999">integer</text>
<text text-anchor="start" x="1113" y="-219" font-family="ArialMT" font-size="10.00">stripe_charge_id </text>
<text text-anchor="start" x="1189.71" y="-219" font-family="Arial ItalicMT" font-size="10.00" fill="#999999">integer</text>
</g>
<!-- m_Invoice&#45;&gt;m_Payment -->
<g id="edge9" class="edge"><title>m_Invoice&#45;&gt;m_Payment</title>
<path fill="none" stroke="black" d="M1070.12,-236.5C1078.89,-236.5 1087.9,-236.5 1096.79,-236.5"/>
<polygon fill="black" stroke="black" points="1097,-239.65 1106,-236.5 1097,-233.35 1097,-239.65"/>
</g>
<!-- m_Menu -->
<g id="node3" class="node"><title>m_Menu</title>
<path fill="none" stroke="black" d="M398,-0.5C398,-0.5 518,-0.5 518,-0.5 524,-0.5 530,-6.5 530,-12.5 530,-12.5 530,-56.5 530,-56.5 530,-62.5 524,-68.5 518,-68.5 518,-68.5 398,-68.5 398,-68.5 392,-68.5 386,-62.5 386,-56.5 386,-56.5 386,-12.5 386,-12.5 386,-6.5 392,-0.5 398,-0.5"/>
<text text-anchor="start" x="442.242" y="-55.2" font-family="Arial BoldMT" font-size="11.00">Menu</text>
<polyline fill="none" stroke="black" points="386,-49.5 530,-49.5 "/>
<text text-anchor="start" x="393" y="-36" font-family="ArialMT" font-size="10.00">end_date </text>
<text text-anchor="start" x="437.487" y="-36" font-family="Arial ItalicMT" font-size="10.00" fill="#999999">datetime</text>
<text text-anchor="start" x="393" y="-23" font-family="ArialMT" font-size="10.00">name </text>
<text text-anchor="start" x="420.793" y="-23" font-family="Arial ItalicMT" font-size="10.00" fill="#999999">string</text>
<text text-anchor="start" x="393" y="-10" font-family="ArialMT" font-size="10.00">start_date </text>
<text text-anchor="start" x="440.251" y="-10" font-family="Arial ItalicMT" font-size="10.00" fill="#999999">datetime ∗</text>
</g>
<!-- m_MenuItem -->
<g id="node4" class="node"><title>m_MenuItem</title>
<path fill="none" stroke="black" d="M578,-7C578,-7 698,-7 698,-7 704,-7 710,-13 710,-19 710,-19 710,-50 710,-50 710,-56 704,-62 698,-62 698,-62 578,-62 578,-62 572,-62 566,-56 566,-50 566,-50 566,-19 566,-19 566,-13 572,-7 578,-7"/>
<text text-anchor="start" x="611.545" y="-48.7" font-family="Arial BoldMT" font-size="11.00">MenuItem</text>
<polyline fill="none" stroke="black" points="566,-43 710,-43 "/>
<text text-anchor="start" x="573" y="-30" font-family="ArialMT" font-size="10.00">name </text>
<text text-anchor="start" x="600.793" y="-30" font-family="Arial ItalicMT" font-size="10.00" fill="#999999">string</text>
<text text-anchor="start" x="573" y="-17" font-family="ArialMT" font-size="10.00">price </text>
<text text-anchor="start" x="597.453" y="-17" font-family="Arial ItalicMT" font-size="10.00" fill="#999999">integer</text>
</g>
<!-- m_Menu&#45;&gt;m_MenuItem -->
<g id="edge4" class="edge"><title>m_Menu&#45;&gt;m_MenuItem</title>
<path fill="none" stroke="black" d="M530.118,-34.5C538.886,-34.5 547.896,-34.5 556.787,-34.5"/>
<polygon fill="black" stroke="black" points="556.995,-37.6501 565.995,-34.5 556.995,-31.3501 556.995,-37.6501"/>
</g>
<!-- m_OrderMenuItem -->
<g id="node6" class="node"><title>m_OrderMenuItem</title>
<path fill="none" stroke="black" d="M758,-16.5C758,-16.5 878,-16.5 878,-16.5 884,-16.5 890,-22.5 890,-28.5 890,-28.5 890,-40.5 890,-40.5 890,-46.5 884,-52.5 878,-52.5 878,-52.5 758,-52.5 758,-52.5 752,-52.5 746,-46.5 746,-40.5 746,-40.5 746,-28.5 746,-28.5 746,-22.5 752,-16.5 758,-16.5"/>
<text text-anchor="start" x="777.487" y="-30.7" font-family="Arial BoldMT" font-size="11.00">OrderMenuItem</text>
</g>
<!-- m_MenuItem&#45;&gt;m_OrderMenuItem -->
<g id="edge8" class="edge"><title>m_MenuItem&#45;&gt;m_OrderMenuItem</title>
<path fill="none" stroke="black" d="M710.118,-34.5C718.886,-34.5 727.896,-34.5 736.787,-34.5"/>
<polygon fill="black" stroke="black" points="736.995,-37.6501 745.995,-34.5 736.995,-31.3501 736.995,-37.6501"/>
</g>
<!-- m_Order -->
<g id="node5" class="node"><title>m_Order</title>
<path fill="none" stroke="black" d="M578,-117.5C578,-117.5 698,-117.5 698,-117.5 704,-117.5 710,-123.5 710,-129.5 710,-129.5 710,-141.5 710,-141.5 710,-147.5 704,-153.5 698,-153.5 698,-153.5 578,-153.5 578,-153.5 572,-153.5 566,-147.5 566,-141.5 566,-141.5 566,-129.5 566,-129.5 566,-123.5 572,-117.5 578,-117.5"/>
<text text-anchor="start" x="621.941" y="-131.7" font-family="Arial BoldMT" font-size="11.00">Order</text>
</g>
<!-- m_Order&#45;&gt;m_MenuItem -->
<g id="edge7" class="edge"><title>m_Order&#45;&gt;m_MenuItem</title>
<path fill="none" stroke="black" stroke-dasharray="1,5" d="M638,-117.441C638,-102.025 638,-86.6095 638,-71.1937"/>
<polygon fill="black" stroke="black" points="641.15,-71.1172 638,-62.1172 634.85,-71.1172 641.15,-71.1172"/>
</g>
<!-- m_Order&#45;&gt;m_OrderMenuItem -->
<g id="edge6" class="edge"><title>m_Order&#45;&gt;m_OrderMenuItem</title>
<path fill="none" stroke="black" d="M670.823,-117.443C700.599,-100.548 745.182,-75.2506 777.279,-57.0385"/>
<polygon fill="black" stroke="black" points="778.88,-59.7517 785.153,-52.5704 775.771,-54.2723 778.88,-59.7517"/>
</g>
<!-- m_Order&#45;&gt;m_Payment -->
<g id="edge10" class="edge"><title>m_Order&#45;&gt;m_Payment</title>
<path fill="none" stroke="black" d="M710.209,-117.702C798.476,-99.3359 951.704,-79.7286 1070,-129.5 1104.82,-144.151 1134.29,-176.106 1153.42,-201.301"/>
<polygon fill="black" stroke="black" points="1150.9,-203.182 1158.78,-208.541 1155.96,-199.433 1150.9,-203.182"/>
</g>
<!-- m_Trip -->
<g id="node10" class="node"><title>m_Trip</title>
<path fill="none" stroke="black" d="M758,-268.5C758,-268.5 878,-268.5 878,-268.5 884,-268.5 890,-274.5 890,-280.5 890,-280.5 890,-350.5 890,-350.5 890,-356.5 884,-362.5 878,-362.5 878,-362.5 758,-362.5 758,-362.5 752,-362.5 746,-356.5 746,-350.5 746,-350.5 746,-280.5 746,-280.5 746,-274.5 752,-268.5 758,-268.5"/>
<text text-anchor="start" x="806.729" y="-349.2" font-family="Arial BoldMT" font-size="11.00">Trip</text>
<polyline fill="none" stroke="black" points="746,-343.5 890,-343.5 "/>
<text text-anchor="start" x="753" y="-330" font-family="ArialMT" font-size="10.00">destination_date </text>
<text text-anchor="start" x="829.172" y="-330" font-family="Arial ItalicMT" font-size="10.00" fill="#999999">datetime</text>
<text text-anchor="start" x="753" y="-317" font-family="ArialMT" font-size="10.00">driver_id </text>
<text text-anchor="start" x="794.128" y="-317" font-family="Arial ItalicMT" font-size="10.00" fill="#999999">integer</text>
<text text-anchor="start" x="753" y="-304" font-family="ArialMT" font-size="10.00">is_in_progress </text>
<text text-anchor="start" x="820.812" y="-304" font-family="Arial ItalicMT" font-size="10.00" fill="#999999">boolean</text>
<text text-anchor="start" x="753" y="-291" font-family="ArialMT" font-size="10.00">origin_date </text>
<text text-anchor="start" x="805.261" y="-291" font-family="Arial ItalicMT" font-size="10.00" fill="#999999">datetime</text>
<text text-anchor="start" x="753" y="-278" font-family="ArialMT" font-size="10.00">passenger_id </text>
<text text-anchor="start" x="815.822" y="-278" font-family="Arial ItalicMT" font-size="10.00" fill="#999999">integer</text>
</g>
<!-- m_Order&#45;&gt;m_Trip -->
<g id="edge18" class="edge"><title>m_Order&#45;&gt;m_Trip</title>
<path fill="none" stroke="black" d="M659.236,-153.635C673.631,-166.699 693.3,-184.88 710,-201.5 729.276,-220.683 749.852,-242.312 767.759,-261.534"/>
<polygon fill="black" stroke="black" points="765.542,-263.775 773.975,-268.224 770.157,-259.487 765.542,-263.775"/>
</g>
<!-- m_Restaurant -->
<g id="node8" class="node"><title>m_Restaurant</title>
<path fill="none" stroke="black" d="M205,-0.5C205,-0.5 325,-0.5 325,-0.5 331,-0.5 337,-6.5 337,-12.5 337,-12.5 337,-56.5 337,-56.5 337,-62.5 331,-68.5 325,-68.5 325,-68.5 205,-68.5 205,-68.5 199,-68.5 193,-62.5 193,-56.5 193,-56.5 193,-12.5 193,-12.5 193,-6.5 199,-0.5 205,-0.5"/>
<text text-anchor="start" x="236.096" y="-55.2" font-family="Arial BoldMT" font-size="11.00">Restaurant</text>
<polyline fill="none" stroke="black" points="193,-49.5 337,-49.5 "/>
<text text-anchor="start" x="200" y="-36" font-family="ArialMT" font-size="10.00">end_date </text>
<text text-anchor="start" x="244.487" y="-36" font-family="Arial ItalicMT" font-size="10.00" fill="#999999">datetime</text>
<text text-anchor="start" x="200" y="-23" font-family="ArialMT" font-size="10.00">name </text>
<text text-anchor="start" x="227.793" y="-23" font-family="Arial ItalicMT" font-size="10.00" fill="#999999">string</text>
<text text-anchor="start" x="200" y="-10" font-family="ArialMT" font-size="10.00">start_date </text>
<text text-anchor="start" x="247.251" y="-10" font-family="Arial ItalicMT" font-size="10.00" fill="#999999">datetime</text>
</g>
<!-- m_Restaurant&#45;&gt;m_Menu -->
<g id="edge3" class="edge"><title>m_Restaurant&#45;&gt;m_Menu</title>
<path fill="none" stroke="black" d="M337.121,-34.5C350.048,-34.5 363.613,-34.5 376.78,-34.5"/>
<polygon fill="black" stroke="black" points="376.819,-37.6501 385.819,-34.5 376.819,-31.3501 376.819,-37.6501"/>
</g>
<!-- m_ServiceTier -->
<g id="node9" class="node"><title>m_ServiceTier</title>
<path fill="none" stroke="black" d="M192,-249C192,-249 338,-249 338,-249 344,-249 350,-255 350,-261 350,-261 350,-292 350,-292 350,-298 344,-304 338,-304 338,-304 192,-304 192,-304 186,-304 180,-298 180,-292 180,-292 180,-261 180,-261 180,-255 186,-249 192,-249"/>
<text text-anchor="start" x="235.39" y="-290.7" font-family="Arial BoldMT" font-size="11.00">ServiceTier</text>
<polyline fill="none" stroke="black" points="180,-285 350,-285 "/>
<text text-anchor="start" x="186.609" y="-272" font-family="ArialMT" font-size="10.00">is_eligible_for_trip_pooling </text>
<text text-anchor="start" x="307.8" y="-272" font-family="Arial ItalicMT" font-size="10.00" fill="#999999">boolean</text>
<text text-anchor="start" x="187" y="-259" font-family="ArialMT" font-size="10.00">rate </text>
<text text-anchor="start" x="207.01" y="-259" font-family="Arial ItalicMT" font-size="10.00" fill="#999999">float</text>
</g>
<!-- m_ServiceTier&#45;&gt;m_Trip -->
<g id="edge13" class="edge"><title>m_ServiceTier&#45;&gt;m_Trip</title>
<path fill="none" stroke="black" d="M350.285,-282.466C455.341,-289.902 633.598,-302.519 736.742,-309.819"/>
<polygon fill="black" stroke="black" points="736.671,-312.972 745.871,-310.465 737.116,-306.688 736.671,-312.972"/>
</g>
<!-- m_User -->
<g id="node13" class="node"><title>m_User</title>
<path fill="none" stroke="black" d="M398,-169.5C398,-169.5 518,-169.5 518,-169.5 524,-169.5 530,-175.5 530,-181.5 530,-181.5 530,-225.5 530,-225.5 530,-231.5 524,-237.5 518,-237.5 518,-237.5 398,-237.5 398,-237.5 392,-237.5 386,-231.5 386,-225.5 386,-225.5 386,-181.5 386,-181.5 386,-175.5 392,-169.5 398,-169.5"/>
<text text-anchor="start" x="444.388" y="-224.2" font-family="Arial BoldMT" font-size="11.00">User</text>
<polyline fill="none" stroke="black" points="386,-218.5 530,-218.5 "/>
<text text-anchor="start" x="393" y="-205" font-family="ArialMT" font-size="10.00">email </text>
<text text-anchor="start" x="419.675" y="-205" font-family="Arial ItalicMT" font-size="10.00" fill="#999999">string ∗ U</text>
<text text-anchor="start" x="393" y="-192" font-family="ArialMT" font-size="10.00">is_driver </text>
<text text-anchor="start" x="433.566" y="-192" font-family="Arial ItalicMT" font-size="10.00" fill="#999999">boolean</text>
<text text-anchor="start" x="393" y="-179" font-family="ArialMT" font-size="10.00">password_digest </text>
<text text-anchor="start" x="470.822" y="-179" font-family="Arial ItalicMT" font-size="10.00" fill="#999999">string</text>
</g>
<!-- m_ServiceTier&#45;&gt;m_User -->
<g id="edge20" class="edge"><title>m_ServiceTier&#45;&gt;m_User</title>
<path fill="none" stroke="black" d="M346.712,-245.652C356.899,-241.759 367.315,-237.777 377.483,-233.891"/>
<polygon fill="black" stroke="black" points="345.491,-242.746 338.209,-248.902 347.74,-248.631 345.491,-242.746"/>
<polygon fill="black" stroke="black" points="378.673,-236.809 385.955,-230.653 376.423,-230.924 378.673,-236.809"/>
</g>
<!-- m_Trip&#45;&gt;m_Invoice -->
<g id="edge1" class="edge"><title>m_Trip&#45;&gt;m_Invoice</title>
<path fill="none" stroke="black" d="M890.118,-283.937C907.105,-276.397 924.998,-268.456 941.183,-261.273"/>
<polygon fill="black" stroke="black" points="942.529,-264.122 949.477,-257.591 939.973,-258.363 942.529,-264.122"/>
</g>
<!-- m_Trip&#45;&gt;m_Payment -->
<g id="edge19" class="edge"><title>m_Trip&#45;&gt;m_Payment</title>
<path fill="none" stroke="black" d="M890.207,-306.301C940.792,-299.04 1010.09,-287.613 1070,-272.5 1081.69,-269.552 1093.93,-265.942 1105.8,-262.159"/>
</g>
<!-- m_TripPoolTrip -->
<g id="node12" class="node"><title>m_TripPoolTrip</title>
<path fill="none" stroke="black" d="M938,-144.5C938,-144.5 1058,-144.5 1058,-144.5 1064,-144.5 1070,-150.5 1070,-156.5 1070,-156.5 1070,-168.5 1070,-168.5 1070,-174.5 1064,-180.5 1058,-180.5 1058,-180.5 938,-180.5 938,-180.5 932,-180.5 926,-174.5 926,-168.5 926,-168.5 926,-156.5 926,-156.5 926,-150.5 932,-144.5 938,-144.5"/>
<text text-anchor="start" x="966.451" y="-158.7" font-family="Arial BoldMT" font-size="11.00">TripPoolTrip</text>
</g>
<!-- m_Trip&#45;&gt;m_TripPoolTrip -->
<g id="edge14" class="edge"><title>m_Trip&#45;&gt;m_TripPoolTrip</title>
<path fill="none" stroke="black" d="M856.534,-268.396C875.783,-246.106 900.508,-220.139 926,-200.5 933.227,-194.933 941.382,-189.735 949.523,-185.08"/>
<polygon fill="black" stroke="black" points="951.265,-187.716 957.624,-180.612 948.222,-182.2 951.265,-187.716"/>
</g>
<!-- m_TripPool -->
<g id="node11" class="node"><title>m_TripPool</title>
<path fill="none" stroke="black" d="M758,-142.5C758,-142.5 878,-142.5 878,-142.5 884,-142.5 890,-148.5 890,-154.5 890,-154.5 890,-166.5 890,-166.5 890,-172.5 884,-178.5 878,-178.5 878,-178.5 758,-178.5 758,-178.5 752,-178.5 746,-172.5 746,-166.5 746,-166.5 746,-154.5 746,-154.5 746,-148.5 752,-142.5 758,-142.5"/>
<text text-anchor="start" x="795.721" y="-156.7" font-family="Arial BoldMT" font-size="11.00">TripPool</text>
</g>
<!-- m_TripPool&#45;&gt;m_Trip -->
<g id="edge21" class="edge"><title>m_TripPool&#45;&gt;m_Trip</title>
<path fill="none" stroke="black" stroke-dasharray="1,5" d="M818,-178.664C818,-205.557 818,-232.45 818,-259.342"/>
<polygon fill="black" stroke="black" points="814.85,-259.463 818,-268.463 821.15,-259.463 814.85,-259.463"/>
</g>
<!-- m_TripPool&#45;&gt;m_TripPoolTrip -->
<g id="edge22" class="edge"><title>m_TripPool&#45;&gt;m_TripPoolTrip</title>
<path fill="none" stroke="black" d="M890.118,-161.299C898.886,-161.398 907.896,-161.499 916.787,-161.599"/>
<polygon fill="black" stroke="black" points="916.96,-164.751 925.995,-161.702 917.031,-158.451 916.96,-164.751"/>
</g>
<!-- m_User&#45;&gt;m_Invoice -->
<g id="edge2" class="edge"><title>m_User&#45;&gt;m_Invoice</title>
<path fill="none" stroke="black" d="M530.352,-209.262C563.012,-212.476 602.125,-217.138 637,-223.5"/>
<path fill="none" stroke="black" d="M639,-223.5C733.173,-240.678 843.518,-241.899 916.546,-240.142"/>
<polygon fill="black" stroke="black" points="916.793,-243.286 925.707,-239.901 916.627,-236.989 916.793,-243.286"/>
</g>
<!-- m_User&#45;&gt;m_Order -->
<g id="edge5" class="edge"><title>m_User&#45;&gt;m_Order</title>
<path fill="none" stroke="black" d="M530.118,-176.331C547.031,-169.87 564.842,-163.066 580.971,-156.904"/>
<polygon fill="black" stroke="black" points="582.459,-159.708 589.742,-153.553 580.211,-153.823 582.459,-159.708"/>
</g>
<!-- m_User&#45;&gt;m_Trip -->
<g id="edge15" class="edge"><title>m_User&#45;&gt;m_Trip</title>
<path fill="none" stroke="black" d="M639,-223.5C674.655,-230.004 710.772,-246.453 741.069,-263.674"/>
<polygon fill="black" stroke="black" points="739.681,-266.511 749.047,-268.303 742.843,-261.062 739.681,-266.511"/>
</g>
<!-- m_Vehicle -->
<g id="node14" class="node"><title>m_Vehicle</title>
<path fill="none" stroke="black" d="M578,-327.5C578,-327.5 698,-327.5 698,-327.5 704,-327.5 710,-333.5 710,-339.5 710,-339.5 710,-357.5 710,-357.5 710,-363.5 704,-369.5 698,-369.5 698,-369.5 578,-369.5 578,-369.5 572,-369.5 566,-363.5 566,-357.5 566,-357.5 566,-339.5 566,-339.5 566,-333.5 572,-327.5 578,-327.5"/>
<text text-anchor="start" x="618.262" y="-356.2" font-family="Arial BoldMT" font-size="11.00">Vehicle</text>
<polyline fill="none" stroke="black" points="566,-350.5 710,-350.5 "/>
<text text-anchor="start" x="573" y="-337" font-family="ArialMT" font-size="10.00">gigawatt_output_rating </text>
<text text-anchor="start" x="676.965" y="-337" font-family="Arial ItalicMT" font-size="10.00" fill="#999999">float</text>
</g>
<!-- m_User&#45;&gt;m_Vehicle -->
<g id="edge23" class="edge"><title>m_User&#45;&gt;m_Vehicle</title>
<path fill="none" stroke="black" d="M501.184,-237.863C532.649,-263.495 575.028,-298.017 604.029,-321.642"/>
<polygon fill="black" stroke="black" points="602.132,-324.159 611.099,-327.401 606.111,-319.275 602.132,-324.159"/>
</g>
<!-- m_Vehicle&#45;&gt;m_Trip -->
<g id="edge17" class="edge"><title>m_Vehicle&#45;&gt;m_Trip</title>
<path fill="none" stroke="black" d="M710.118,-335.315C718.978,-333.673 728.085,-331.984 737.068,-330.319"/>
<polygon fill="black" stroke="black" points="737.72,-333.402 745.995,-328.664 736.572,-327.207 737.72,-333.402"/>
</g>
<!-- m_VehicleType -->
<g id="node15" class="node"><title>m_VehicleType</title>
<path fill="none" stroke="black" d="M12,-291.5C12,-291.5 132,-291.5 132,-291.5 138,-291.5 144,-297.5 144,-303.5 144,-303.5 144,-321.5 144,-321.5 144,-327.5 138,-333.5 132,-333.5 132,-333.5 12,-333.5 12,-333.5 6,-333.5 0,-327.5 0,-321.5 0,-321.5 0,-303.5 0,-303.5 0,-297.5 6,-291.5 12,-291.5"/>
<text text-anchor="start" x="40.3354" y="-320.2" font-family="Arial BoldMT" font-size="11.00">VehicleType</text>
<polyline fill="none" stroke="black" points="0,-314.5 144,-314.5 "/>
<text text-anchor="start" x="7" y="-301" font-family="ArialMT" font-size="10.00">name </text>
<text text-anchor="start" x="34.793" y="-301" font-family="Arial ItalicMT" font-size="10.00" fill="#999999">string</text>
</g>
<!-- m_VehicleType&#45;&gt;m_ServiceTier -->
<g id="edge11" class="edge"><title>m_VehicleType&#45;&gt;m_ServiceTier</title>
<path fill="none" stroke="black" d="M144.121,-299.095C152.872,-297.446 161.914,-295.741 170.928,-294.042"/>
<polygon fill="black" stroke="black" points="171.66,-297.11 179.921,-292.347 170.493,-290.919 171.66,-297.11"/>
</g>
<!-- m_VehicleType&#45;&gt;m_Vehicle -->
<g id="edge24" class="edge"><title>m_VehicleType&#45;&gt;m_Vehicle</title>
<path fill="none" stroke="black" d="M144.08,-317.17C156.07,-317.952 168.389,-318.752 180,-319.5 311.926,-328.001 465.288,-337.694 556.573,-343.444"/>
<polygon fill="black" stroke="black" points="556.575,-346.6 565.755,-344.022 556.971,-340.313 556.575,-346.6"/>
</g>
</g>
</svg>
