<?xml version="1.0" encoding="UTF-8" standalone="no"?>
<!DOCTYPE svg PUBLIC "-//W3C//DTD SVG 1.1//EN"
 "http://www.w3.org/Graphics/SVG/1.1/DTD/svg11.dtd">
<!-- Generated by graphviz version 2.38.0 (20140413.2041)
 -->
<!-- Title: models_diagram Pages: 1 -->
<svg width="1130pt" height="481pt"
 viewBox="0.00 0.00 1130.19 481.00" xmlns="http://www.w3.org/2000/svg" xmlns:xlink="http://www.w3.org/1999/xlink">
<g id="graph0" class="graph" transform="scale(1 1) rotate(0) translate(4 477)">
<title>models_diagram</title>
<polygon fill="none" stroke="none" points="-4,4 -4,-477 1126.19,-477 1126.19,4 -4,4"/>
<!-- _diagram_info -->
<g id="node1" class="node"><title>_diagram_info</title>
<text text-anchor="start" x="8" y="-416.6" font-family="Times,serif" font-size="13.00">Models diagram</text>
<text text-anchor="start" x="8" y="-403.6" font-family="Times,serif" font-size="13.00">Date: Oct 17 2015 &#45; 08:16</text>
<text text-anchor="start" x="8" y="-390.6" font-family="Times,serif" font-size="13.00">Migration version: 20151017151520</text>
<text text-anchor="start" x="8" y="-377.6" font-family="Times,serif" font-size="13.00">Generated by RailRoady 1.3.1</text>
<text text-anchor="start" x="8" y="-364.6" font-family="Times,serif" font-size="13.00">http://railroady.prestonlee.com</text>
</g>
<!-- Order -->
<g id="node2" class="node"><title>Order</title>
<path fill="none" stroke="black" d="M71.1824,-165.5C71.1824,-165.5 180.193,-165.5 180.193,-165.5 186.193,-165.5 192.193,-171.5 192.193,-177.5 192.193,-177.5 192.193,-239.5 192.193,-239.5 192.193,-245.5 186.193,-251.5 180.193,-251.5 180.193,-251.5 71.1824,-251.5 71.1824,-251.5 65.1824,-251.5 59.1824,-245.5 59.1824,-239.5 59.1824,-239.5 59.1824,-177.5 59.1824,-177.5 59.1824,-171.5 65.1824,-165.5 71.1824,-165.5"/>
<text text-anchor="middle" x="125.688" y="-236.3" font-family="Times,serif" font-size="14.00">Order</text>
<polyline fill="none" stroke="black" points="59.1824,-229.5 192.193,-229.5 "/>
<text text-anchor="start" x="67.1824" y="-214.3" font-family="Times,serif" font-size="14.00">id :integer</text>
<text text-anchor="start" x="67.1824" y="-200.3" font-family="Times,serif" font-size="14.00">user_id :integer</text>
<text text-anchor="start" x="67.1824" y="-186.3" font-family="Times,serif" font-size="14.00">created_at :datetime</text>
<text text-anchor="start" x="67.1824" y="-172.3" font-family="Times,serif" font-size="14.00">updated_at :datetime</text>
</g>
<!-- Payment -->
<g id="node3" class="node"><title>Payment</title>
<path fill="none" stroke="black" d="M419.033,-137.5C419.033,-137.5 550.343,-137.5 550.343,-137.5 556.343,-137.5 562.343,-143.5 562.343,-149.5 562.343,-149.5 562.343,-267.5 562.343,-267.5 562.343,-273.5 556.343,-279.5 550.343,-279.5 550.343,-279.5 419.033,-279.5 419.033,-279.5 413.033,-279.5 407.033,-273.5 407.033,-267.5 407.033,-267.5 407.033,-149.5 407.033,-149.5 407.033,-143.5 413.033,-137.5 419.033,-137.5"/>
<text text-anchor="middle" x="484.688" y="-264.3" font-family="Times,serif" font-size="14.00">Payment</text>
<polyline fill="none" stroke="black" points="407.033,-257.5 562.343,-257.5 "/>
<text text-anchor="start" x="415.033" y="-242.3" font-family="Times,serif" font-size="14.00">id :integer</text>
<text text-anchor="start" x="415.033" y="-228.3" font-family="Times,serif" font-size="14.00">user_id :integer</text>
<text text-anchor="start" x="415.033" y="-214.3" font-family="Times,serif" font-size="14.00">trip_id :integer</text>
<text text-anchor="start" x="415.033" y="-200.3" font-family="Times,serif" font-size="14.00">order_id :integer</text>
<text text-anchor="start" x="415.033" y="-186.3" font-family="Times,serif" font-size="14.00">amount :integer</text>
<text text-anchor="start" x="415.033" y="-172.3" font-family="Times,serif" font-size="14.00">stripe_charge_id :integer</text>
<text text-anchor="start" x="415.033" y="-158.3" font-family="Times,serif" font-size="14.00">created_at :datetime</text>
<text text-anchor="start" x="415.033" y="-144.3" font-family="Times,serif" font-size="14.00">updated_at :datetime</text>
</g>
<!-- ServiceTier -->
<g id="node4" class="node"><title>ServiceTier</title>
<path fill="none" stroke="black" d="M757.9,-337.5C757.9,-337.5 959.476,-337.5 959.476,-337.5 965.476,-337.5 971.476,-343.5 971.476,-349.5 971.476,-349.5 971.476,-439.5 971.476,-439.5 971.476,-445.5 965.476,-451.5 959.476,-451.5 959.476,-451.5 757.9,-451.5 757.9,-451.5 751.9,-451.5 745.9,-445.5 745.9,-439.5 745.9,-439.5 745.9,-349.5 745.9,-349.5 745.9,-343.5 751.9,-337.5 757.9,-337.5"/>
<text text-anchor="middle" x="858.688" y="-436.3" font-family="Times,serif" font-size="14.00">ServiceTier</text>
<polyline fill="none" stroke="black" points="745.9,-429.5 971.476,-429.5 "/>
<text text-anchor="start" x="753.9" y="-414.3" font-family="Times,serif" font-size="14.00">id :integer</text>
<text text-anchor="start" x="753.9" y="-400.3" font-family="Times,serif" font-size="14.00">rate :float</text>
<text text-anchor="start" x="753.9" y="-386.3" font-family="Times,serif" font-size="14.00">is_eligible_for_trip_pooling :boolean</text>
<text text-anchor="start" x="753.9" y="-372.3" font-family="Times,serif" font-size="14.00">vehicle_type_id :integer</text>
<text text-anchor="start" x="753.9" y="-358.3" font-family="Times,serif" font-size="14.00">created_at :datetime</text>
<text text-anchor="start" x="753.9" y="-344.3" font-family="Times,serif" font-size="14.00">updated_at :datetime</text>
</g>
<!-- Trip -->
<g id="node5" class="node"><title>Trip</title>
<path fill="none" stroke="black" d="M577.017,-316.5C577.017,-316.5 716.359,-316.5 716.359,-316.5 722.359,-316.5 728.359,-322.5 728.359,-328.5 728.359,-328.5 728.359,-460.5 728.359,-460.5 728.359,-466.5 722.359,-472.5 716.359,-472.5 716.359,-472.5 577.017,-472.5 577.017,-472.5 571.017,-472.5 565.017,-466.5 565.017,-460.5 565.017,-460.5 565.017,-328.5 565.017,-328.5 565.017,-322.5 571.017,-316.5 577.017,-316.5"/>
<text text-anchor="middle" x="646.688" y="-457.3" font-family="Times,serif" font-size="14.00">Trip</text>
<polyline fill="none" stroke="black" points="565.017,-450.5 728.359,-450.5 "/>
<text text-anchor="start" x="573.017" y="-435.3" font-family="Times,serif" font-size="14.00">id :integer</text>
<text text-anchor="start" x="573.017" y="-421.3" font-family="Times,serif" font-size="14.00">origin_date :datetime</text>
<text text-anchor="start" x="573.017" y="-407.3" font-family="Times,serif" font-size="14.00">destination_date :datetime</text>
<text text-anchor="start" x="573.017" y="-393.3" font-family="Times,serif" font-size="14.00">is_in_progress :boolean</text>
<text text-anchor="start" x="573.017" y="-379.3" font-family="Times,serif" font-size="14.00">created_at :datetime</text>
<text text-anchor="start" x="573.017" y="-365.3" font-family="Times,serif" font-size="14.00">updated_at :datetime</text>
<text text-anchor="start" x="573.017" y="-351.3" font-family="Times,serif" font-size="14.00">driver_id :integer</text>
<text text-anchor="start" x="573.017" y="-337.3" font-family="Times,serif" font-size="14.00">passenger_id :integer</text>
<text text-anchor="start" x="573.017" y="-323.3" font-family="Times,serif" font-size="14.00">service_tier_id :integer</text>
</g>
<!-- Trip&#45;&gt;Payment -->
<g id="edge3" class="edge"><title>Trip&#45;&gt;Payment</title>
<path fill="none" stroke="#237428" d="M573.383,-310.24C566.176,-302.055 558.888,-293.776 551.748,-285.667"/>
<ellipse fill="none" stroke="#237428" cx="576.046" cy="-313.265" rx="4.00002" ry="4.00002"/>
<ellipse fill="#237428" stroke="#237428" cx="548.964" cy="-282.506" rx="4.00002" ry="4.00002"/>
</g>
<!-- TripPool -->
<g id="node6" class="node"><title>TripPool</title>
<path fill="none" stroke="black" d="M592.182,-172.5C592.182,-172.5 701.193,-172.5 701.193,-172.5 707.193,-172.5 713.193,-178.5 713.193,-184.5 713.193,-184.5 713.193,-232.5 713.193,-232.5 713.193,-238.5 707.193,-244.5 701.193,-244.5 701.193,-244.5 592.182,-244.5 592.182,-244.5 586.182,-244.5 580.182,-238.5 580.182,-232.5 580.182,-232.5 580.182,-184.5 580.182,-184.5 580.182,-178.5 586.182,-172.5 592.182,-172.5"/>
<text text-anchor="middle" x="646.688" y="-229.3" font-family="Times,serif" font-size="14.00">TripPool</text>
<polyline fill="none" stroke="black" points="580.182,-222.5 713.193,-222.5 "/>
<text text-anchor="start" x="588.182" y="-207.3" font-family="Times,serif" font-size="14.00">id :integer</text>
<text text-anchor="start" x="588.182" y="-193.3" font-family="Times,serif" font-size="14.00">created_at :datetime</text>
<text text-anchor="start" x="588.182" y="-179.3" font-family="Times,serif" font-size="14.00">updated_at :datetime</text>
</g>
<!-- Trip&#45;&gt;TripPool -->
<g id="edge2" class="edge"><title>Trip&#45;&gt;TripPool</title>
<path fill="none" stroke="#b365f4" d="M639.953,-308.092C639.864,-289.12 640.16,-269.772 640.84,-253.298"/>
<ellipse fill="none" stroke="#b365f4" cx="639.985" cy="-312.267" rx="4" ry="4"/>
<ellipse fill="#b365f4" stroke="#b365f4" cx="641.043" cy="-248.957" rx="4" ry="4"/>
</g>
<!-- TripPoolTrip -->
<g id="node7" class="node"><title>TripPoolTrip</title>
<path fill="none" stroke="black" d="M639.182,-0.5C639.182,-0.5 748.193,-0.5 748.193,-0.5 754.193,-0.5 760.193,-6.5 760.193,-12.5 760.193,-12.5 760.193,-88.5 760.193,-88.5 760.193,-94.5 754.193,-100.5 748.193,-100.5 748.193,-100.5 639.182,-100.5 639.182,-100.5 633.182,-100.5 627.182,-94.5 627.182,-88.5 627.182,-88.5 627.182,-12.5 627.182,-12.5 627.182,-6.5 633.182,-0.5 639.182,-0.5"/>
<text text-anchor="middle" x="693.688" y="-85.3" font-family="Times,serif" font-size="14.00">TripPoolTrip</text>
<polyline fill="none" stroke="black" points="627.182,-78.5 760.193,-78.5 "/>
<text text-anchor="start" x="635.182" y="-63.3" font-family="Times,serif" font-size="14.00">id :integer</text>
<text text-anchor="start" x="635.182" y="-49.3" font-family="Times,serif" font-size="14.00">created_at :datetime</text>
<text text-anchor="start" x="635.182" y="-35.3" font-family="Times,serif" font-size="14.00">updated_at :datetime</text>
<text text-anchor="start" x="635.182" y="-21.3" font-family="Times,serif" font-size="14.00">trip_pool_id :integer</text>
<text text-anchor="start" x="635.182" y="-7.3" font-family="Times,serif" font-size="14.00">trip_id :integer</text>
</g>
<!-- Trip&#45;&gt;TripPoolTrip -->
<g id="edge1" class="edge"><title>Trip&#45;&gt;TripPoolTrip</title>
<path fill="none" stroke="#6ecacd" d="M710.674,-309.074C715.527,-299.631 719.693,-289.854 722.688,-280 741.167,-219.19 733.033,-199.708 722.688,-137 721.242,-128.236 719.015,-119.161 716.424,-110.344"/>
<ellipse fill="none" stroke="#6ecacd" cx="708.728" cy="-312.701" rx="4.00002" ry="4.00002"/>
<polygon fill="#6ecacd" stroke="#6ecacd" points="716.34,-110.076 717.662,-99.1903 714.853,-105.303 713.365,-100.529 713.365,-100.529 713.365,-100.529 714.853,-105.303 709.069,-101.868 716.34,-110.076 716.34,-110.076"/>
</g>
<!-- TripPool&#45;&gt;Trip -->
<g id="edge4" class="edge"><title>TripPool&#45;&gt;Trip</title>
<path fill="none" stroke="#694bc6" d="M652.614,-255.244C653.215,-270.683 653.487,-288.471 653.43,-306.039"/>
<polygon fill="#694bc6" stroke="#694bc6" points="652.6,-254.951 656.64,-244.757 652.373,-249.957 652.145,-244.962 652.145,-244.962 652.145,-244.962 652.373,-249.957 647.65,-245.167 652.6,-254.951 652.6,-254.951"/>
<polygon fill="#694bc6" stroke="#694bc6" points="653.429,-306.267 648.86,-316.236 653.394,-311.267 653.36,-316.267 653.36,-316.267 653.36,-316.267 653.394,-311.267 657.86,-316.298 653.429,-306.267 653.429,-306.267"/>
</g>
<!-- TripPool&#45;&gt;TripPoolTrip -->
<g id="edge5" class="edge"><title>TripPool&#45;&gt;TripPoolTrip</title>
<path fill="none" stroke="#61a042" d="M659.553,-164.8C664.626,-147.959 670.538,-128.336 676.003,-110.199"/>
<ellipse fill="none" stroke="#61a042" cx="658.389" cy="-168.661" rx="4.00001" ry="4.00001"/>
<polygon fill="#61a042" stroke="#61a042" points="676.013,-110.163 683.207,-101.887 677.456,-105.376 678.898,-100.588 678.898,-100.588 678.898,-100.588 677.456,-105.376 674.59,-99.2903 676.013,-110.163 676.013,-110.163"/>
</g>
<!-- User -->
<g id="node8" class="node"><title>User</title>
<path fill="none" stroke="black" d="M237.386,-337.5C237.386,-337.5 361.99,-337.5 361.99,-337.5 367.99,-337.5 373.99,-343.5 373.99,-349.5 373.99,-349.5 373.99,-439.5 373.99,-439.5 373.99,-445.5 367.99,-451.5 361.99,-451.5 361.99,-451.5 237.386,-451.5 237.386,-451.5 231.386,-451.5 225.386,-445.5 225.386,-439.5 225.386,-439.5 225.386,-349.5 225.386,-349.5 225.386,-343.5 231.386,-337.5 237.386,-337.5"/>
<text text-anchor="middle" x="299.688" y="-436.3" font-family="Times,serif" font-size="14.00">User</text>
<polyline fill="none" stroke="black" points="225.386,-429.5 373.99,-429.5 "/>
<text text-anchor="start" x="233.386" y="-414.3" font-family="Times,serif" font-size="14.00">id :integer</text>
<text text-anchor="start" x="233.386" y="-400.3" font-family="Times,serif" font-size="14.00">password_digest :string</text>
<text text-anchor="start" x="233.386" y="-386.3" font-family="Times,serif" font-size="14.00">email :string</text>
<text text-anchor="start" x="233.386" y="-372.3" font-family="Times,serif" font-size="14.00">is_driver :boolean</text>
<text text-anchor="start" x="233.386" y="-358.3" font-family="Times,serif" font-size="14.00">created_at :datetime</text>
<text text-anchor="start" x="233.386" y="-344.3" font-family="Times,serif" font-size="14.00">updated_at :datetime</text>
</g>
<!-- User&#45;&gt;Order -->
<g id="edge6" class="edge"><title>User&#45;&gt;Order</title>
<path fill="none" stroke="#3bc507" d="M240.967,-331.405C218.663,-307.818 193.576,-281.289 172.514,-259.017"/>
<ellipse fill="none" stroke="#3bc507" cx="243.788" cy="-334.388" rx="4.00002" ry="4.00002"/>
<polygon fill="#3bc507" stroke="#3bc507" points="172.406,-258.903 168.805,-248.546 168.971,-255.27 165.535,-251.638 165.535,-251.638 165.535,-251.638 168.971,-255.27 162.266,-254.73 172.406,-258.903 172.406,-258.903"/>
</g>
<!-- User&#45;&gt;Payment -->
<g id="edge8" class="edge"><title>User&#45;&gt;Payment</title>
<path fill="none" stroke="#9e7b97" d="M362.271,-331.255C376.599,-317.004 392,-301.687 406.881,-286.886"/>
<ellipse fill="none" stroke="#9e7b97" cx="359.035" cy="-334.473" rx="4.00002" ry="4.00002"/>
<polygon fill="#9e7b97" stroke="#9e7b97" points="407.047,-286.721 417.31,-282.86 410.592,-283.195 414.137,-279.669 414.137,-279.669 414.137,-279.669 410.592,-283.195 410.964,-276.479 407.047,-286.721 407.047,-286.721"/>
</g>
<!-- Vehicle -->
<g id="node9" class="node"><title>Vehicle</title>
<path fill="none" stroke="black" d="M222.227,-151.5C222.227,-151.5 377.148,-151.5 377.148,-151.5 383.148,-151.5 389.148,-157.5 389.148,-163.5 389.148,-163.5 389.148,-253.5 389.148,-253.5 389.148,-259.5 383.148,-265.5 377.148,-265.5 377.148,-265.5 222.227,-265.5 222.227,-265.5 216.227,-265.5 210.227,-259.5 210.227,-253.5 210.227,-253.5 210.227,-163.5 210.227,-163.5 210.227,-157.5 216.227,-151.5 222.227,-151.5"/>
<text text-anchor="middle" x="299.688" y="-250.3" font-family="Times,serif" font-size="14.00">Vehicle</text>
<polyline fill="none" stroke="black" points="210.227,-243.5 389.148,-243.5 "/>
<text text-anchor="start" x="218.227" y="-228.3" font-family="Times,serif" font-size="14.00">id :integer</text>
<text text-anchor="start" x="218.227" y="-214.3" font-family="Times,serif" font-size="14.00">gigawatt_output_rating :float</text>
<text text-anchor="start" x="218.227" y="-200.3" font-family="Times,serif" font-size="14.00">user_id :integer</text>
<text text-anchor="start" x="218.227" y="-186.3" font-family="Times,serif" font-size="14.00">created_at :datetime</text>
<text text-anchor="start" x="218.227" y="-172.3" font-family="Times,serif" font-size="14.00">updated_at :datetime</text>
<text text-anchor="start" x="218.227" y="-158.3" font-family="Times,serif" font-size="14.00">vehicle_type_id :integer</text>
</g>
<!-- User&#45;&gt;Vehicle -->
<g id="edge7" class="edge"><title>User&#45;&gt;Vehicle</title>
<path fill="none" stroke="#52c58c" d="M299.688,-329.175C299.688,-311.233 299.688,-291.742 299.688,-273.801"/>
<ellipse fill="none" stroke="#52c58c" cx="299.688" cy="-333.294" rx="4" ry="4"/>
<ellipse fill="#52c58c" stroke="#52c58c" cx="299.688" cy="-269.678" rx="4" ry="4"/>
</g>
<!-- VehicleType -->
<g id="node10" class="node"><title>VehicleType</title>
<path fill="none" stroke="black" d="M1001.18,-351.5C1001.18,-351.5 1110.19,-351.5 1110.19,-351.5 1116.19,-351.5 1122.19,-357.5 1122.19,-363.5 1122.19,-363.5 1122.19,-425.5 1122.19,-425.5 1122.19,-431.5 1116.19,-437.5 1110.19,-437.5 1110.19,-437.5 1001.18,-437.5 1001.18,-437.5 995.182,-437.5 989.182,-431.5 989.182,-425.5 989.182,-425.5 989.182,-363.5 989.182,-363.5 989.182,-357.5 995.182,-351.5 1001.18,-351.5"/>
<text text-anchor="middle" x="1055.69" y="-422.3" font-family="Times,serif" font-size="14.00">VehicleType</text>
<polyline fill="none" stroke="black" points="989.182,-415.5 1122.19,-415.5 "/>
<text text-anchor="start" x="997.182" y="-400.3" font-family="Times,serif" font-size="14.00">id :integer</text>
<text text-anchor="start" x="997.182" y="-386.3" font-family="Times,serif" font-size="14.00">name :string</text>
<text text-anchor="start" x="997.182" y="-372.3" font-family="Times,serif" font-size="14.00">created_at :datetime</text>
<text text-anchor="start" x="997.182" y="-358.3" font-family="Times,serif" font-size="14.00">updated_at :datetime</text>
</g>
</g>
</svg>
