<?xml version="1.0" encoding="UTF-8" standalone="no"?>
<!DOCTYPE svg PUBLIC "-//W3C//DTD SVG 1.1//EN"
 "http://www.w3.org/Graphics/SVG/1.1/DTD/svg11.dtd">
<!-- Generated by graphviz version 2.38.0 (20140413.2041)
 -->
<!-- Title: models_diagram Pages: 1 -->
<svg width="1613pt" height="151pt"
 viewBox="0.00 0.00 1613.15 151.00" xmlns="http://www.w3.org/2000/svg" xmlns:xlink="http://www.w3.org/1999/xlink">
<g id="graph0" class="graph" transform="scale(1 1) rotate(0) translate(4 147)">
<title>models_diagram</title>
<polygon fill="none" stroke="none" points="-4,4 -4,-147 1609.15,-147 1609.15,4 -4,4"/>
<!-- _diagram_info -->
<g id="node1" class="node"><title>_diagram_info</title>
<text text-anchor="start" x="8" y="-93.6" font-family="Times,serif" font-size="13.00">Models diagram</text>
<text text-anchor="start" x="8" y="-80.6" font-family="Times,serif" font-size="13.00">Date: Oct 15 2015 &#45; 16:55</text>
<text text-anchor="start" x="8" y="-67.6" font-family="Times,serif" font-size="13.00">Migration version: 20151015054409</text>
<text text-anchor="start" x="8" y="-54.6" font-family="Times,serif" font-size="13.00">Generated by RailRoady 1.3.1</text>
<text text-anchor="start" x="8" y="-41.6" font-family="Times,serif" font-size="13.00">http://railroady.prestonlee.com</text>
</g>
<!-- Order -->
<g id="node2" class="node"><title>Order</title>
<path fill="none" stroke="black" d="M237.182,-28.5C237.182,-28.5 346.193,-28.5 346.193,-28.5 352.193,-28.5 358.193,-34.5 358.193,-40.5 358.193,-40.5 358.193,-102.5 358.193,-102.5 358.193,-108.5 352.193,-114.5 346.193,-114.5 346.193,-114.5 237.182,-114.5 237.182,-114.5 231.182,-114.5 225.182,-108.5 225.182,-102.5 225.182,-102.5 225.182,-40.5 225.182,-40.5 225.182,-34.5 231.182,-28.5 237.182,-28.5"/>
<text text-anchor="middle" x="291.688" y="-99.3" font-family="Times,serif" font-size="14.00">Order</text>
<polyline fill="none" stroke="black" points="225.182,-92.5 358.193,-92.5 "/>
<text text-anchor="start" x="233.182" y="-77.3" font-family="Times,serif" font-size="14.00">id :integer</text>
<text text-anchor="start" x="233.182" y="-63.3" font-family="Times,serif" font-size="14.00">user_id :integer</text>
<text text-anchor="start" x="233.182" y="-49.3" font-family="Times,serif" font-size="14.00">created_at :datetime</text>
<text text-anchor="start" x="233.182" y="-35.3" font-family="Times,serif" font-size="14.00">updated_at :datetime</text>
</g>
<!-- Payment -->
<g id="node3" class="node"><title>Payment</title>
<path fill="none" stroke="black" d="M388.033,-0.5C388.033,-0.5 519.343,-0.5 519.343,-0.5 525.343,-0.5 531.343,-6.5 531.343,-12.5 531.343,-12.5 531.343,-130.5 531.343,-130.5 531.343,-136.5 525.343,-142.5 519.343,-142.5 519.343,-142.5 388.033,-142.5 388.033,-142.5 382.033,-142.5 376.033,-136.5 376.033,-130.5 376.033,-130.5 376.033,-12.5 376.033,-12.5 376.033,-6.5 382.033,-0.5 388.033,-0.5"/>
<text text-anchor="middle" x="453.688" y="-127.3" font-family="Times,serif" font-size="14.00">Payment</text>
<polyline fill="none" stroke="black" points="376.033,-120.5 531.343,-120.5 "/>
<text text-anchor="start" x="384.033" y="-105.3" font-family="Times,serif" font-size="14.00">id :integer</text>
<text text-anchor="start" x="384.033" y="-91.3" font-family="Times,serif" font-size="14.00">user_id :integer</text>
<text text-anchor="start" x="384.033" y="-77.3" font-family="Times,serif" font-size="14.00">trip_id :integer</text>
<text text-anchor="start" x="384.033" y="-63.3" font-family="Times,serif" font-size="14.00">order_id :integer</text>
<text text-anchor="start" x="384.033" y="-49.3" font-family="Times,serif" font-size="14.00">amount :integer</text>
<text text-anchor="start" x="384.033" y="-35.3" font-family="Times,serif" font-size="14.00">stripe_charge_id :integer</text>
<text text-anchor="start" x="384.033" y="-21.3" font-family="Times,serif" font-size="14.00">created_at :datetime</text>
<text text-anchor="start" x="384.033" y="-7.3" font-family="Times,serif" font-size="14.00">updated_at :datetime</text>
</g>
<!-- Trip -->
<g id="node4" class="node"><title>Trip</title>
<path fill="none" stroke="black" d="M561.017,-14.5C561.017,-14.5 700.359,-14.5 700.359,-14.5 706.359,-14.5 712.359,-20.5 712.359,-26.5 712.359,-26.5 712.359,-116.5 712.359,-116.5 712.359,-122.5 706.359,-128.5 700.359,-128.5 700.359,-128.5 561.017,-128.5 561.017,-128.5 555.017,-128.5 549.017,-122.5 549.017,-116.5 549.017,-116.5 549.017,-26.5 549.017,-26.5 549.017,-20.5 555.017,-14.5 561.017,-14.5"/>
<text text-anchor="middle" x="630.688" y="-113.3" font-family="Times,serif" font-size="14.00">Trip</text>
<polyline fill="none" stroke="black" points="549.017,-106.5 712.359,-106.5 "/>
<text text-anchor="start" x="557.017" y="-91.3" font-family="Times,serif" font-size="14.00">id :integer</text>
<text text-anchor="start" x="557.017" y="-77.3" font-family="Times,serif" font-size="14.00">origin_date :datetime</text>
<text text-anchor="start" x="557.017" y="-63.3" font-family="Times,serif" font-size="14.00">destination_date :datetime</text>
<text text-anchor="start" x="557.017" y="-49.3" font-family="Times,serif" font-size="14.00">is_in_progress :boolean</text>
<text text-anchor="start" x="557.017" y="-35.3" font-family="Times,serif" font-size="14.00">created_at :datetime</text>
<text text-anchor="start" x="557.017" y="-21.3" font-family="Times,serif" font-size="14.00">updated_at :datetime</text>
</g>
<!-- TripPool -->
<g id="node5" class="node"><title>TripPool</title>
<path fill="none" stroke="black" d="M742.182,-35.5C742.182,-35.5 851.193,-35.5 851.193,-35.5 857.193,-35.5 863.193,-41.5 863.193,-47.5 863.193,-47.5 863.193,-95.5 863.193,-95.5 863.193,-101.5 857.193,-107.5 851.193,-107.5 851.193,-107.5 742.182,-107.5 742.182,-107.5 736.182,-107.5 730.182,-101.5 730.182,-95.5 730.182,-95.5 730.182,-47.5 730.182,-47.5 730.182,-41.5 736.182,-35.5 742.182,-35.5"/>
<text text-anchor="middle" x="796.688" y="-92.3" font-family="Times,serif" font-size="14.00">TripPool</text>
<polyline fill="none" stroke="black" points="730.182,-85.5 863.193,-85.5 "/>
<text text-anchor="start" x="738.182" y="-70.3" font-family="Times,serif" font-size="14.00">id :integer</text>
<text text-anchor="start" x="738.182" y="-56.3" font-family="Times,serif" font-size="14.00">created_at :datetime</text>
<text text-anchor="start" x="738.182" y="-42.3" font-family="Times,serif" font-size="14.00">updated_at :datetime</text>
</g>
<!-- TripPoolTrip -->
<g id="node6" class="node"><title>TripPoolTrip</title>
<path fill="none" stroke="black" d="M893.182,-35.5C893.182,-35.5 1002.19,-35.5 1002.19,-35.5 1008.19,-35.5 1014.19,-41.5 1014.19,-47.5 1014.19,-47.5 1014.19,-95.5 1014.19,-95.5 1014.19,-101.5 1008.19,-107.5 1002.19,-107.5 1002.19,-107.5 893.182,-107.5 893.182,-107.5 887.182,-107.5 881.182,-101.5 881.182,-95.5 881.182,-95.5 881.182,-47.5 881.182,-47.5 881.182,-41.5 887.182,-35.5 893.182,-35.5"/>
<text text-anchor="middle" x="947.688" y="-92.3" font-family="Times,serif" font-size="14.00">TripPoolTrip</text>
<polyline fill="none" stroke="black" points="881.182,-85.5 1014.19,-85.5 "/>
<text text-anchor="start" x="889.182" y="-70.3" font-family="Times,serif" font-size="14.00">id :integer</text>
<text text-anchor="start" x="889.182" y="-56.3" font-family="Times,serif" font-size="14.00">created_at :datetime</text>
<text text-anchor="start" x="889.182" y="-42.3" font-family="Times,serif" font-size="14.00">updated_at :datetime</text>
</g>
<!-- TripServiceTier -->
<g id="node7" class="node"><title>TripServiceTier</title>
<path fill="none" stroke="black" d="M1043.9,-21.5C1043.9,-21.5 1245.48,-21.5 1245.48,-21.5 1251.48,-21.5 1257.48,-27.5 1257.48,-33.5 1257.48,-33.5 1257.48,-109.5 1257.48,-109.5 1257.48,-115.5 1251.48,-121.5 1245.48,-121.5 1245.48,-121.5 1043.9,-121.5 1043.9,-121.5 1037.9,-121.5 1031.9,-115.5 1031.9,-109.5 1031.9,-109.5 1031.9,-33.5 1031.9,-33.5 1031.9,-27.5 1037.9,-21.5 1043.9,-21.5"/>
<text text-anchor="middle" x="1144.69" y="-106.3" font-family="Times,serif" font-size="14.00">TripServiceTier</text>
<polyline fill="none" stroke="black" points="1031.9,-99.5 1257.48,-99.5 "/>
<text text-anchor="start" x="1039.9" y="-84.3" font-family="Times,serif" font-size="14.00">id :integer</text>
<text text-anchor="start" x="1039.9" y="-70.3" font-family="Times,serif" font-size="14.00">billed_rate :float</text>
<text text-anchor="start" x="1039.9" y="-56.3" font-family="Times,serif" font-size="14.00">is_eligible_for_trip_pooling :boolean</text>
<text text-anchor="start" x="1039.9" y="-42.3" font-family="Times,serif" font-size="14.00">created_at :datetime</text>
<text text-anchor="start" x="1039.9" y="-28.3" font-family="Times,serif" font-size="14.00">updated_at :datetime</text>
</g>
<!-- User -->
<g id="node8" class="node"><title>User</title>
<path fill="none" stroke="black" d="M1287.18,-14.5C1287.18,-14.5 1396.19,-14.5 1396.19,-14.5 1402.19,-14.5 1408.19,-20.5 1408.19,-26.5 1408.19,-26.5 1408.19,-116.5 1408.19,-116.5 1408.19,-122.5 1402.19,-128.5 1396.19,-128.5 1396.19,-128.5 1287.18,-128.5 1287.18,-128.5 1281.18,-128.5 1275.18,-122.5 1275.18,-116.5 1275.18,-116.5 1275.18,-26.5 1275.18,-26.5 1275.18,-20.5 1281.18,-14.5 1287.18,-14.5"/>
<text text-anchor="middle" x="1341.69" y="-113.3" font-family="Times,serif" font-size="14.00">User</text>
<polyline fill="none" stroke="black" points="1275.18,-106.5 1408.19,-106.5 "/>
<text text-anchor="start" x="1283.18" y="-91.3" font-family="Times,serif" font-size="14.00">id :integer</text>
<text text-anchor="start" x="1283.18" y="-77.3" font-family="Times,serif" font-size="14.00">password :string</text>
<text text-anchor="start" x="1283.18" y="-63.3" font-family="Times,serif" font-size="14.00">email :string</text>
<text text-anchor="start" x="1283.18" y="-49.3" font-family="Times,serif" font-size="14.00">is_driver :boolean</text>
<text text-anchor="start" x="1283.18" y="-35.3" font-family="Times,serif" font-size="14.00">created_at :datetime</text>
<text text-anchor="start" x="1283.18" y="-21.3" font-family="Times,serif" font-size="14.00">updated_at :datetime</text>
</g>
<!-- Vehicle -->
<g id="node9" class="node"><title>Vehicle</title>
<path fill="none" stroke="black" d="M1438.23,-14.5C1438.23,-14.5 1593.15,-14.5 1593.15,-14.5 1599.15,-14.5 1605.15,-20.5 1605.15,-26.5 1605.15,-26.5 1605.15,-116.5 1605.15,-116.5 1605.15,-122.5 1599.15,-128.5 1593.15,-128.5 1593.15,-128.5 1438.23,-128.5 1438.23,-128.5 1432.23,-128.5 1426.23,-122.5 1426.23,-116.5 1426.23,-116.5 1426.23,-26.5 1426.23,-26.5 1426.23,-20.5 1432.23,-14.5 1438.23,-14.5"/>
<text text-anchor="middle" x="1515.69" y="-113.3" font-family="Times,serif" font-size="14.00">Vehicle</text>
<polyline fill="none" stroke="black" points="1426.23,-106.5 1605.15,-106.5 "/>
<text text-anchor="start" x="1434.23" y="-91.3" font-family="Times,serif" font-size="14.00">id :integer</text>
<text text-anchor="start" x="1434.23" y="-77.3" font-family="Times,serif" font-size="14.00">gigawatt_output_rating :float</text>
<text text-anchor="start" x="1434.23" y="-63.3" font-family="Times,serif" font-size="14.00">user_id :integer</text>
<text text-anchor="start" x="1434.23" y="-49.3" font-family="Times,serif" font-size="14.00">trip_service_tier_id :integer</text>
<text text-anchor="start" x="1434.23" y="-35.3" font-family="Times,serif" font-size="14.00">created_at :datetime</text>
<text text-anchor="start" x="1434.23" y="-21.3" font-family="Times,serif" font-size="14.00">updated_at :datetime</text>
</g>
</g>
</svg>
