<?xml version="1.0" encoding="UTF-8" standalone="no"?>
<!DOCTYPE svg PUBLIC "-//W3C//DTD SVG 1.1//EN"
 "http://www.w3.org/Graphics/SVG/1.1/DTD/svg11.dtd">
<!-- Generated by graphviz version 2.38.0 (20140413.2041)
 -->
<!-- Title: models_diagram Pages: 1 -->
<svg width="730pt" height="225pt"
 viewBox="0.00 0.00 729.87 225.00" xmlns="http://www.w3.org/2000/svg" xmlns:xlink="http://www.w3.org/1999/xlink">
<g id="graph0" class="graph" transform="scale(1 1) rotate(0) translate(4 221)">
<title>models_diagram</title>
<polygon fill="none" stroke="none" points="-4,4 -4,-221 725.865,-221 725.865,4 -4,4"/>
<!-- _diagram_info -->
<g id="node1" class="node"><title>_diagram_info</title>
<text text-anchor="start" x="8" y="-202.6" font-family="Times,serif" font-size="13.00">Models diagram</text>
<text text-anchor="start" x="8" y="-189.6" font-family="Times,serif" font-size="13.00">Date: Oct 17 2015 &#45; 08:16</text>
<text text-anchor="start" x="8" y="-176.6" font-family="Times,serif" font-size="13.00">Migration version: 20151017151520</text>
<text text-anchor="start" x="8" y="-163.6" font-family="Times,serif" font-size="13.00">Generated by RailRoady 1.3.1</text>
<text text-anchor="start" x="8" y="-150.6" font-family="Times,serif" font-size="13.00">http://railroady.prestonlee.com</text>
</g>
<!-- Order -->
<g id="node2" class="node"><title>Order</title>
<ellipse fill="none" stroke="black" cx="167.688" cy="-90" rx="30.9619" ry="18"/>
<text text-anchor="middle" x="167.688" y="-85.8" font-family="Times,serif" font-size="14.00">Order</text>
</g>
<!-- Payment -->
<g id="node3" class="node"><title>Payment</title>
<ellipse fill="none" stroke="black" cx="348.688" cy="-90" rx="41.1093" ry="18"/>
<text text-anchor="middle" x="348.688" y="-85.8" font-family="Times,serif" font-size="14.00">Payment</text>
</g>
<!-- ServiceTier -->
<g id="node4" class="node"><title>ServiceTier</title>
<ellipse fill="none" stroke="black" cx="544.688" cy="-180.5" rx="51.0935" ry="18"/>
<text text-anchor="middle" x="544.688" y="-176.3" font-family="Times,serif" font-size="14.00">ServiceTier</text>
</g>
<!-- Trip -->
<g id="node5" class="node"><title>Trip</title>
<ellipse fill="none" stroke="black" cx="448.688" cy="-180.5" rx="27" ry="18"/>
<text text-anchor="middle" x="448.688" y="-176.3" font-family="Times,serif" font-size="14.00">Trip</text>
</g>
<!-- Trip&#45;&gt;Payment -->
<g id="edge3" class="edge"><title>Trip&#45;&gt;Payment</title>
<path fill="none" stroke="#3c2574" d="M426.725,-160.063C410.675,-145.859 388.93,-126.614 372.47,-112.048"/>
<ellipse fill="none" stroke="#3c2574" cx="430.067" cy="-163.021" rx="4.00002" ry="4.00002"/>
<ellipse fill="#3c2574" stroke="#3c2574" cx="369.216" cy="-109.168" rx="4.00002" ry="4.00002"/>
</g>
<!-- TripPool -->
<g id="node6" class="node"><title>TripPool</title>
<ellipse fill="none" stroke="black" cx="448.688" cy="-90" rx="41.4907" ry="18"/>
<text text-anchor="middle" x="448.688" y="-85.8" font-family="Times,serif" font-size="14.00">TripPool</text>
</g>
<!-- Trip&#45;&gt;TripPool -->
<g id="edge2" class="edge"><title>Trip&#45;&gt;TripPool</title>
<path fill="none" stroke="#102f7c" d="M442.545,-154.558C441.74,-142.553 441.735,-128.189 442.531,-116.156"/>
<ellipse fill="none" stroke="#102f7c" cx="442.925" cy="-158.869" rx="4" ry="4"/>
<ellipse fill="#102f7c" stroke="#102f7c" cx="442.904" cy="-111.857" rx="4" ry="4"/>
</g>
<!-- TripPoolTrip -->
<g id="node7" class="node"><title>TripPoolTrip</title>
<ellipse fill="none" stroke="black" cx="482.688" cy="-18" rx="56.3278" ry="18"/>
<text text-anchor="middle" x="482.688" y="-13.8" font-family="Times,serif" font-size="14.00">TripPoolTrip</text>
</g>
<!-- Trip&#45;&gt;TripPoolTrip -->
<g id="edge1" class="edge"><title>Trip&#45;&gt;TripPoolTrip</title>
<path fill="none" stroke="#38e4b2" d="M468.2,-158.953C479.507,-145.58 492.665,-127.12 498.688,-108 505.144,-87.5015 500.12,-63.4762 494.048,-45.5576"/>
<ellipse fill="none" stroke="#38e4b2" cx="465.47" cy="-162.077" rx="4.00002" ry="4.00002"/>
<polygon fill="#38e4b2" stroke="#38e4b2" points="493.997,-45.42 494.753,-34.4802 492.264,-40.7298 490.532,-36.0395 490.532,-36.0395 490.532,-36.0395 492.264,-40.7298 486.311,-37.5989 493.997,-45.42 493.997,-45.42"/>
</g>
<!-- TripPool&#45;&gt;Trip -->
<g id="edge4" class="edge"><title>TripPool&#45;&gt;Trip</title>
<path fill="none" stroke="#3315b2" d="M454.952,-117.867C455.604,-128.965 455.6,-141.798 454.938,-152.87"/>
<polygon fill="#3315b2" stroke="#3315b2" points="454.949,-117.838 458.609,-107.501 454.537,-112.855 454.125,-107.872 454.125,-107.872 454.125,-107.872 454.537,-112.855 449.64,-108.244 454.949,-117.838 454.949,-117.838"/>
<polygon fill="#3315b2" stroke="#3315b2" points="454.936,-152.889 449.615,-162.477 454.518,-157.871 454.099,-162.854 454.099,-162.854 454.099,-162.854 454.518,-157.871 458.583,-163.23 454.936,-152.889 454.936,-152.889"/>
</g>
<!-- TripPool&#45;&gt;TripPoolTrip -->
<g id="edge5" class="edge"><title>TripPool&#45;&gt;TripPoolTrip</title>
<path fill="none" stroke="#29355f" d="M460.429,-64.8269C463.424,-58.6614 466.66,-51.9986 469.712,-45.714"/>
<ellipse fill="none" stroke="#29355f" cx="458.666" cy="-68.4569" rx="4.00002" ry="4.00002"/>
<polygon fill="#29355f" stroke="#29355f" points="469.928,-45.2704 478.345,-38.2414 472.112,-40.7728 474.297,-36.2753 474.297,-36.2753 474.297,-36.2753 472.112,-40.7728 470.249,-34.3092 469.928,-45.2704 469.928,-45.2704"/>
</g>
<!-- User -->
<g id="node8" class="node"><title>User</title>
<ellipse fill="none" stroke="black" cx="252.688" cy="-180.5" rx="27" ry="18"/>
<text text-anchor="middle" x="252.688" y="-176.3" font-family="Times,serif" font-size="14.00">User</text>
</g>
<!-- User&#45;&gt;Order -->
<g id="edge6" class="edge"><title>User&#45;&gt;Order</title>
<path fill="none" stroke="#2c71f1" d="M232.786,-158.778C219.654,-145.106 202.463,-127.207 189.045,-113.237"/>
<ellipse fill="none" stroke="#2c71f1" cx="235.881" cy="-162.001" rx="4.00002" ry="4.00002"/>
<polygon fill="#2c71f1" stroke="#2c71f1" points="188.956,-113.144 185.274,-102.814 185.492,-109.538 182.029,-105.931 182.029,-105.931 182.029,-105.931 185.492,-109.538 178.783,-109.049 188.956,-113.144 188.956,-113.144"/>
</g>
<!-- User&#45;&gt;Payment -->
<g id="edge8" class="edge"><title>User&#45;&gt;Payment</title>
<path fill="none" stroke="#4407ec" d="M274.176,-159.69C288.962,-146.06 308.637,-127.922 324.057,-113.707"/>
<ellipse fill="none" stroke="#4407ec" cx="271.053" cy="-162.57" rx="4.00002" ry="4.00002"/>
<polygon fill="#4407ec" stroke="#4407ec" points="324.331,-113.454 334.734,-109.984 328.008,-110.065 331.684,-106.676 331.684,-106.676 331.684,-106.676 328.008,-110.065 328.634,-103.367 324.331,-113.454 324.331,-113.454"/>
</g>
<!-- Vehicle -->
<g id="node9" class="node"><title>Vehicle</title>
<ellipse fill="none" stroke="black" cx="252.688" cy="-90" rx="36.7489" ry="18"/>
<text text-anchor="middle" x="252.688" y="-85.8" font-family="Times,serif" font-size="14.00">Vehicle</text>
</g>
<!-- User&#45;&gt;Vehicle -->
<g id="edge7" class="edge"><title>User&#45;&gt;Vehicle</title>
<path fill="none" stroke="#e2cdef" d="M252.688,-154.189C252.688,-142.277 252.688,-128.109 252.688,-116.21"/>
<ellipse fill="none" stroke="#e2cdef" cx="252.688" cy="-158.436" rx="4" ry="4"/>
<ellipse fill="#e2cdef" stroke="#e2cdef" cx="252.688" cy="-112.011" rx="4" ry="4"/>
</g>
<!-- VehicleType -->
<g id="node10" class="node"><title>VehicleType</title>
<ellipse fill="none" stroke="black" cx="667.688" cy="-180.5" rx="54.3553" ry="18"/>
<text text-anchor="middle" x="667.688" y="-176.3" font-family="Times,serif" font-size="14.00">VehicleType</text>
</g>
</g>
</svg>
